<?xml version="1.0" encoding="UTF-8"?>
<svg version="1.1" xmlns="http://www.w3.org/2000/svg" width="500" height="500">
<path d="M0 0 C1.24598969 -0.00426498 2.49197937 -0.00852997 3.77572632 -0.01292419 C5.13859561 -0.01257475 6.50146488 -0.01211326 7.86433411 -0.0115509 C9.31385891 -0.01454639 10.76338291 -0.01794981 12.21290588 -0.02172852 C16.13672997 -0.03053477 20.06053221 -0.03290525 23.98436522 -0.0335443 C26.44102881 -0.03425691 28.89768692 -0.03639526 31.35434914 -0.03904152 C39.93987503 -0.04828496 48.52538543 -0.05237781 57.11091614 -0.05158997 C65.08893466 -0.05098998 73.06688539 -0.06152873 81.04488677 -0.07733363 C87.91395164 -0.09045223 94.78299448 -0.09577203 101.65207177 -0.09513456 C105.74585723 -0.09488076 109.83958245 -0.09766566 113.93335533 -0.10831261 C117.78870711 -0.11806616 121.64394195 -0.11802359 125.4992981 -0.11079597 C126.90525294 -0.10975897 128.31121535 -0.11205971 129.71715736 -0.11815643 C148.28052691 -0.19336705 164.42958926 2.74136596 178.33235168 15.69621277 C188.75288569 26.98512461 194.69158362 39.80360995 194.71606445 55.36863708 C194.72246193 57.21465263 194.72246193 57.21465263 194.72898865 59.09796143 C194.72863919 60.44874576 194.72817768 61.79953007 194.72761536 63.15031433 C194.73060996 64.58323249 194.73401319 66.01614985 194.73779297 67.44906616 C194.74660762 71.33149422 194.74897005 75.21390022 194.74960876 79.09633732 C194.75032083 81.52567586 194.75245815 83.95500885 194.75510597 86.38434601 C194.76435181 94.8703039 194.76844191 103.3562461 194.76765442 111.84220886 C194.7670542 119.73447298 194.77759704 127.62666862 194.79339808 135.51891541 C194.8065047 142.30894867 194.81183699 149.09895963 194.81119901 155.88900542 C194.81094489 159.93802916 194.81374821 163.98699205 194.82437706 168.03600311 C194.83411043 171.84783476 194.8341016 175.65954805 194.82686043 179.47138405 C194.82582099 180.86366513 194.82813905 182.25595378 194.83422089 183.64822197 C194.89946802 199.63088866 192.2786719 214.65945193 181.58235168 227.13371277 C180.43766418 228.68058777 180.43766418 228.68058777 179.26985168 230.25871277 C166.89496558 243.49696301 149.50081491 245.65910847 132.3224144 246.24487305 C124.01293342 246.41963597 115.70292742 246.41795112 107.39206576 246.40236378 C103.7717402 246.39721114 100.1514235 246.40202031 96.53109741 246.40513611 C90.45872647 246.40874884 84.38640459 246.40404772 78.31404114 246.39445496 C71.34471407 246.38357072 64.37550409 246.38710673 57.40617985 246.39810777 C51.3656403 246.40725233 45.32513551 246.40843141 39.28459126 246.40323043 C35.70164488 246.40015036 32.1187531 246.39958975 28.53581047 246.40630341 C-23.21286646 246.48962142 -23.21286646 246.48962142 -41.10514832 229.88371277 C-54.81518482 215.44374376 -56.73024305 196.88863162 -56.69230652 177.85490417 C-56.69666893 176.48965175 -56.70185707 175.12440176 -56.70779419 173.75915527 C-56.72103073 170.09577543 -56.72178029 166.43249971 -56.71923089 162.76910067 C-56.71815073 159.69057643 -56.72307088 156.61207238 -56.72783631 153.53355253 C-56.73887825 146.26060838 -56.73939892 138.9877159 -56.73332214 131.71476746 C-56.72728551 124.25639118 -56.73959774 116.7982037 -56.76089221 109.3398596 C-56.77860604 102.8943579 -56.78449431 96.44891577 -56.78125447 90.00339067 C-56.77945711 86.17224309 -56.78192061 82.34123025 -56.79596901 78.51010513 C-56.95107221 32.14146466 -56.95107221 32.14146466 -39.85514832 14.35246277 C-28.7243496 4.22058189 -14.90695591 0.02320129 0 0 Z M-13.41764832 60.13371277 C-26.69852276 75.15920126 -29.50568094 89.68153209 -28.68717957 109.08586121 C-27.67042097 120.58333788 -22.16290586 130.96252926 -15.41764832 140.13371277 C-14.85046082 140.93293152 -14.28327332 141.73215027 -13.69889832 142.55558777 C-10.29343586 147.16844146 -6.61600925 150.961841 -2.21061707 154.62590027 C-0.41764832 156.13371277 -0.41764832 156.13371277 1.95735168 158.57121277 C3.44690669 160.36474901 3.44690669 160.36474901 5.58235168 160.13371277 C5.77055481 160.68027527 5.95875793 161.22683777 6.15266418 161.78996277 C8.25658202 165.23900839 11.25070265 167.23688956 14.45735168 169.63371277 C18.41287225 172.62685926 22.10708192 175.57781029 25.58235168 179.13371277 C26.90755671 179.81639415 28.2404735 180.48441687 29.58235168 181.13371277 C30.18176575 181.74472839 30.18176575 181.74472839 30.79328918 182.36808777 C33.38451158 184.92536402 36.27262572 187.09305242 39.14485168 189.32121277 C40.41212689 190.30904759 41.67905215 191.29733149 42.94563293 192.28605652 C43.56647766 192.77058289 44.18732239 193.25510925 44.82698059 193.75431824 C47.18273337 195.60550088 49.50698003 197.49457936 51.83235168 199.38371277 C53.4128909 200.63724387 54.99621307 201.88727435 56.58235168 203.13371277 C57.43700012 203.82078308 58.29164856 204.50785339 59.17219543 205.21574402 C64.11905011 208.99322725 64.11905011 208.99322725 70.01985168 210.57121277 C77.09874237 207.71481828 82.87400984 202.67891794 88.58235168 197.69621277 C91.58235168 195.13371277 91.58235168 195.13371277 94.58235168 194.13371277 C96.26385866 192.48201975 97.92728284 190.8118971 99.58235168 189.13371277 C102.11658874 186.94761618 104.72295136 184.8541496 107.33235168 182.75871277 C108.0381134 182.18725525 108.74387512 181.61579773 109.47102356 181.02702332 C113.97113338 177.39315364 118.51917017 173.83512452 123.17610168 170.40324402 C123.64016418 169.98429871 124.10422668 169.56535339 124.58235168 169.13371277 C124.58235168 168.47371277 124.58235168 167.81371277 124.58235168 167.13371277 C125.42153137 166.77213074 125.42153137 166.77213074 126.27766418 166.40324402 C129.06389023 164.86845849 131.12499583 162.98281983 133.45735168 160.82121277 C136.3158645 158.1910427 139.16708468 155.61394891 142.20735168 153.19621277 C142.99110168 152.51558777 143.77485168 151.83496277 144.58235168 151.13371277 C144.58235168 150.47371277 144.58235168 149.81371277 144.58235168 149.13371277 C145.14051575 148.93648621 145.69867981 148.73925964 146.27375793 148.53605652 C149.52234012 146.56272149 151.38528254 143.76183899 153.51985168 140.69621277 C153.96079163 140.0673114 154.40173157 139.43841003 154.85603333 138.79045105 C158.4809073 133.50096415 161.41147447 128.18745979 163.58235168 122.13371277 C163.89946106 121.24941589 164.21657043 120.36511902 164.54328918 119.45402527 C169.03092142 104.59131666 167.93506378 87.16176618 161.15657043 73.19621277 C159.74123686 70.73857928 158.2390417 68.43394641 156.58235168 66.13371277 C155.83985168 65.10246277 155.09735168 64.07121277 154.33235168 63.00871277 C144.58673721 52.82011582 132.95960065 45.57464331 118.62922668 44.96574402 C100.63796678 44.77222249 87.89173405 48.70134908 73.58235168 60.13371277 C72.92235168 60.79371277 72.26235168 61.45371277 71.58235168 62.13371277 C69.45735168 62.75871277 69.45735168 62.75871277 67.58235168 63.13371277 C67.58235168 62.47371277 67.58235168 61.81371277 67.58235168 61.13371277 C65.36626051 59.42320523 63.165745 57.8575907 60.83235168 56.32121277 C60.15293518 55.87269958 59.47351868 55.4241864 58.77351379 54.96208191 C50.74956343 49.79155086 42.31423066 45.35670181 32.58235168 45.13371277 C31.351297 45.09504089 30.12024231 45.05636902 28.85188293 45.01652527 C12.60757256 44.66247279 -1.39243901 48.45642995 -13.41764832 60.13371277 Z " fill="#2275E7" transform="translate(182.4176483154297,112.86628723144531)"/>
<path d="M0 0 C2.5625 0.4375 2.5625 0.4375 6 2 C6.87322919 3.5309499 7.7250217 5.07420443 8.5625 6.625 C10.49878095 9.31306497 11.980041 10.73430393 15.22119141 11.57861328 C22.71689265 12.63280711 30.82061053 13.19135671 37.23046875 8.7734375 C39.59698179 6.14199059 39.59698179 6.14199059 41.37890625 3.28515625 C43 1 43 1 45.08203125 0.08984375 C47 0 47 0 49.125 1.5 C52.66274138 6.21698851 53.05026747 11.30073841 53.8125 17 C54.53718648 22.12583123 55.86035864 26.7770164 57.625 31.625 C61.09174046 41.39501793 61.51276202 51.40664497 57 61 C55.18396707 63.08332782 53.34179097 64.71261931 51.1328125 66.3671875 C48.51812813 68.36890557 46.32498351 70.6681783 44 73 C41.82689745 74.9583554 39.60414835 76.85588596 37.375 78.75 C36.75890869 79.27585693 36.14281738 79.80171387 35.50805664 80.34350586 C30.97888831 84.19760602 26.39279066 87.97705171 21.7734375 91.72265625 C19.22676235 93.81379937 16.7180311 95.94127588 14.21582031 98.08496094 C8.53563277 102.94650361 2.7540222 107.5591321 -3.2734375 111.98828125 C-4.98552203 113.25149548 -6.68124257 114.53752529 -8.3515625 115.85546875 C-15.24345555 121.28896496 -15.24345555 121.28896496 -19 121 C-22.25391826 119.21626751 -25.31411636 117.37176728 -27 114 C-27.37649553 99.96209519 -22.08912473 86.47344032 -13 76 C-12.42894531 75.45472656 -11.85789062 74.90945313 -11.26953125 74.34765625 C-9.57657914 72.82502464 -9.57657914 72.82502464 -8 70 C-8.46888409 66.47719977 -9.77240323 63.31942167 -11 60 C-13.82540994 49.29668233 -13.64463553 40.78459484 -10.0703125 30.2734375 C-8.41070899 25.19771581 -7.23376241 20.02466211 -6.03515625 14.82421875 C-5.7109375 13.4453125 -5.38671875 12.06640625 -5.0625 10.6875 C-4.90587891 9.98560547 -4.74925781 9.28371094 -4.58789062 8.56054688 C-3.71955261 4.93151667 -3.07473253 2.28633957 0 0 Z M6 31 C9.47736026 34.78034623 9.47736026 34.78034623 14 37 C13.72382467 35.05925139 13.72382467 35.05925139 13 33 C10.04622502 30.63019987 10.04622502 30.63019987 6 31 Z M37 31 C35.68 32.65 34.36 34.3 33 36 C36.68754757 35.50168276 38.60490662 34.89932357 41 32 C39.68 31.67 38.36 31.34 37 31 Z M19 41 C19.57452746 44.93075644 19.57452746 44.93075644 22 48 C22.125 50.625 22.125 50.625 22 53 C19.69 53.66 17.38 54.32 15 55 C15 55.33 15 55.66 15 56 C20.61 56 26.22 56 32 56 C30.68 55.34 29.36 54.68 28 54 C27.34 53.67 26.68 53.34 26 53 C25.875 50.625 25.875 50.625 26 48 C26.66 47.34 27.32 46.68 28 46 C28.16687448 43.41645782 28.16687448 43.41645782 28 41 C25.03 41 22.06 41 19 41 Z M-2 44 C-2 44.66 -2 45.32 -2 46 C-1.34 46 -0.68 46 0 46 C0 45.34 0 44.68 0 44 C-0.66 44 -1.32 44 -2 44 Z M42 44 C42 44.66 42 45.32 42 46 C42.66 46 43.32 46 44 46 C44 45.34 44 44.68 44 44 C43.34 44 42.68 44 42 44 Z M48 44 C48 44.66 48 45.32 48 46 C48.66 45.67 49.32 45.34 50 45 C49.34 44.67 48.68 44.34 48 44 Z " fill="#33CC62" transform="translate(269,197)"/>
<path d="M0 0 C2.68359375 1.76171875 2.68359375 1.76171875 4.5625 3.3125 C4.5625 3.9725 4.5625 4.6325 4.5625 5.3125 C5.243125 5.4775 5.92375 5.6425 6.625 5.8125 C13.7718542 9.46195746 20.99837516 19.18425031 24.5625 26.3125 C24.11054572 40.54905975 18.89062928 54.84452231 14.5625 68.3125 C13.2425 68.3125 11.9225 68.3125 10.5625 68.3125 C9.16136384 66.35940112 7.82910533 64.35541182 6.5625 62.3125 C5.0775 61.3225 5.0775 61.3225 3.5625 60.3125 C3.5625 59.6525 3.5625 58.9925 3.5625 58.3125 C2.3559375 58.003125 2.3559375 58.003125 1.125 57.6875 C-5.08217827 55.29174698 -10.78409329 52.33814653 -13.9375 46.25 C-16.79538191 39.37809304 -17.65827063 32.24189366 -15.1875 25.125 C-13.75257457 21.70273653 -12.0854853 18.9604853 -9.4375 16.3125 C-7.30859375 15.68359375 -7.30859375 15.68359375 -5.4375 15.3125 C-18.48786552 11.77341782 -29.49647471 12.50437052 -41.4375 18.92578125 C-44.47094852 20.67078799 -47.4544763 22.48291213 -50.4375 24.3125 C-51.36304688 24.84359375 -52.28859375 25.3746875 -53.2421875 25.921875 C-60.00370282 29.81426067 -65.77638232 33.62482669 -68.4375 41.3125 C-69.09738542 51.40486532 -63.25095106 59.77275019 -57.0859375 67.20703125 C-56.54195312 67.90183594 -55.99796875 68.59664063 -55.4375 69.3125 C-54.84582031 70.06273437 -54.25414062 70.81296875 -53.64453125 71.5859375 C-51.97445304 75.35847662 -52.78964178 78.27988758 -53.75 82.125 C-53.90662109 82.81787109 -54.06324219 83.51074219 -54.22460938 84.22460938 C-54.6115097 85.92462597 -55.02216377 87.61920614 -55.4375 89.3125 C-58.58201407 89.01097125 -59.49727639 88.2498674 -61.7265625 85.9140625 C-62.49742187 84.93179688 -63.26828125 83.94953125 -64.0625 82.9375 C-65.22652344 81.47183594 -65.22652344 81.47183594 -66.4140625 79.9765625 C-70.4375 74.67929537 -70.4375 74.67929537 -70.4375 71.3125 C-71.0975 71.3125 -71.7575 71.3125 -72.4375 71.3125 C-79.62119138 55.04271676 -83.42444304 40.72472478 -77.4375 23.3125 C-74.86032521 17.13082302 -71.63505981 11.53108788 -67.4375 6.3125 C-66.7775 6.3125 -66.1175 6.3125 -65.4375 6.3125 C-65.2003125 5.714375 -64.963125 5.11625 -64.71875 4.5 C-60.64016785 -2.46343294 -49.00797168 -6.13343209 -41.53588867 -8.21801758 C-26.98970187 -11.47250475 -12.45560167 -7.59410408 0 0 Z M-2.4375 16.3125 C2.05351628 20.35441465 7.15234989 22.74924441 12.5625 25.3125 C12.5625 24.3225 12.5625 23.3325 12.5625 22.3125 C10.81845212 21.30215502 9.06700439 20.30457578 7.3125 19.3125 C6.33796875 18.755625 5.3634375 18.19875 4.359375 17.625 C1.47390311 16.02928496 1.47390311 16.02928496 -2.4375 16.3125 Z M-4.4375 41.3125 C-4.1075 42.9625 -3.7775 44.6125 -3.4375 46.3125 C-2.1175 45.9825 -0.7975 45.6525 0.5625 45.3125 C0.2325 43.9925 -0.0975 42.6725 -0.4375 41.3125 C-1.7575 41.3125 -3.0775 41.3125 -4.4375 41.3125 Z " fill="#2576E5" transform="translate(238.4375,171.6875)"/>
<path d="M0 0 C9.60802667 7.73235613 16.51676639 18.36471141 18.5 30.6875 C18.64566406 31.53441406 18.79132813 32.38132813 18.94140625 33.25390625 C20.65561613 46.51647739 17.90277188 60.46992924 10.5 71.6875 C9.51 72.1825 9.51 72.1825 8.5 72.6875 C7.84 72.3575 7.18 72.0275 6.5 71.6875 C5.93078083 69.32419739 5.46468708 67.01743858 5.0625 64.625 C4.33765192 60.47886899 3.59309093 56.73166753 2.02734375 52.828125 C-0.13432804 47.35006222 -0.95731789 41.62502115 -1.9609375 35.84570312 C-3.16264668 29.34163388 -3.16264668 29.34163388 -6.5 23.6875 C-9.74938299 22.0916367 -9.74938299 22.0916367 -13.5 22.6875 C-15.63877207 24.59819376 -17.30051629 26.60901258 -19.01953125 28.90234375 C-19.50808594 29.49144531 -19.99664062 30.08054688 -20.5 30.6875 C-21.16 30.6875 -21.82 30.6875 -22.5 30.6875 C-22.83 31.6775 -23.16 32.6675 -23.5 33.6875 C-40.24055629 35.22020607 -40.24055629 35.22020607 -45.73046875 31.49609375 C-47.9143642 28.99156112 -49.76744448 26.51863122 -51.5 23.6875 C-51.995 23.1925 -51.995 23.1925 -52.5 22.6875 C-53.08910156 22.71070313 -53.67820312 22.73390625 -54.28515625 22.7578125 C-57.01927621 22.8234689 -58.91176784 22.62023265 -61.5 21.6875 C-64.82532658 18.4160685 -67.46665275 14.89094008 -69.5 10.6875 C-69.26221756 8.0066196 -68.76727441 7.01287754 -67.0625 4.9375 C-65.5 3.6875 -65.5 3.6875 -63.5 3.6875 C-63.5 3.0275 -63.5 2.3675 -63.5 1.6875 C-44.41379713 -12.5256298 -19.51721501 -13.85866127 0 0 Z " fill="#32CC61" transform="translate(325.5,172.3125)"/>
<path d="M0 0 C4.56778226 1.0747723 6.90446404 3.46714392 9.47265625 7.20703125 C12.77798198 13.25129698 16.03491331 19.97244848 16 27 C13.85263091 31.8302004 10.57026824 35.1615426 7 39 C1.42486473 47.64351439 -1.12080501 57.98389069 -3 68 C-8.10124002 67.61859888 -10.94986889 64.80058997 -14.5625 61.5 C-20.11654922 56.55928137 -25.81566201 52.05567695 -31.8671875 47.7421875 C-32.57101563 47.16726563 -33.27484375 46.59234375 -34 46 C-34 45.34 -34 44.68 -34 44 C-35.65 43.34 -37.3 42.68 -39 42 C-39 41.34 -39 40.68 -39 40 C-40.65 39.34 -42.3 38.68 -44 38 C-44 37.34 -44 36.68 -44 36 C-44.58265625 35.71640625 -45.1653125 35.4328125 -45.765625 35.140625 C-49.54010354 33.2137933 -52.61624208 31.61471487 -55 28 C-56.24797344 20.66156463 -55.86288195 13.43813658 -52 7 C-50.5625 5 -50.5625 5 -49 4 C-47 3.875 -47 3.875 -45 5 C-44.608125 6.051875 -44.21625 7.10375 -43.8125 8.1875 C-41.34213631 14.70391882 -34.30576215 17.48070683 -28.375 20.375 C-23.71676268 22.29642198 -19.86775695 22.97977109 -14.96484375 21.3046875 C-9.17670631 18.72977776 -5.61763761 15.32041404 -2.8125 9.5625 C-1.80733264 6.39235679 -0.88034625 3.20697564 0 0 Z " fill="#2174E5" transform="translate(242,239)"/>
<path d="M0 0 C0 4 0 4 -1.3984375 5.51953125 C-2.19121094 6.25236328 -2.19121094 6.25236328 -3 7 C-5.87043306 12.33606145 -6.21289681 17.99314079 -6.4375 23.9375 C-6.77745996 32.53548739 -8.64578022 39.20778977 -14 46 C-16.1875 46 -16.1875 46 -19 45 C-21.03652109 42.54364225 -22.46077505 39.78481314 -24 37 C-24.47050781 36.30390625 -24.94101563 35.6078125 -25.42578125 34.890625 C-29.29754192 28.91393529 -30.27089138 23.05344713 -29 16 C-27.59375 14.1484375 -27.59375 14.1484375 -26 13 C-25.34 13 -24.68 13 -24 13 C-23.67 12.01 -23.34 11.02 -23 10 C-16.58372278 5.22598421 -8.1249773 0 0 0 Z " fill="#2175E6" transform="translate(202,194)"/>
<path d="M0 0 C0.33 0 0.66 0 1 0 C0.98428955 0.61407715 0.9685791 1.2281543 0.95239258 1.86083984 C0.88923806 4.69879589 0.85075823 7.53660333 0.8125 10.375 C0.78736328 11.34050781 0.76222656 12.30601562 0.73632812 13.30078125 C0.66849395 20.03897584 1.68859978 25.6712281 4 32 C6.1341663 30.43708502 6.1341663 30.43708502 8 28 C8.44637805 24.63046936 8.44637805 24.63046936 8.1875 21 C7.8892853 13.39149526 7.8892853 13.39149526 9 10 C9.66 10 10.32 10 11 10 C10.86980469 10.57105469 10.73960937 11.14210937 10.60546875 11.73046875 C9.06783476 20.76945736 11.80297926 28.43105386 17.01171875 35.875 C18.35106747 37.53866422 19.72172091 39.1779864 21.1328125 40.78125 C23.15942442 43.18944157 24.74047523 45.1001639 26 48 C25.73138003 50.78729323 25.3570463 53.13174948 24.6875 55.8125 C24.53087891 56.50537109 24.37425781 57.19824219 24.21289062 57.91210938 C23.8259903 59.61212597 23.41533623 61.30670614 23 63 C19.85548593 62.69847125 18.94022361 61.9373674 16.7109375 59.6015625 C15.94007813 58.61929688 15.16921875 57.63703125 14.375 56.625 C13.59898437 55.64789063 12.82296875 54.67078125 12.0234375 53.6640625 C8 48.36679537 8 48.36679537 8 45 C7.34 45 6.68 45 6 45 C-0.73120562 29.75501651 -4.48149383 16.5255085 0 0 Z " fill="#307CE3" transform="translate(160,198)"/>
<path d="M0 0 C1.2375 0.0103125 2.475 0.020625 3.75 0.03125 C4.9875 0.0209375 6.225 0.010625 7.5 0 C10.75 0.53125 10.75 0.53125 12.72265625 2.3671875 C13.75 4.53125 13.75 4.53125 13.1875 7.65625 C11.75 10.53125 11.75 10.53125 9.625 11.90625 C9.00625 12.1125 8.3875 12.31875 7.75 12.53125 C7.49969023 14.94744823 7.49969023 14.94744823 7.75 17.53125 C11.10327639 19.76676759 11.65743657 19.70408528 15.4375 19.15625 C16.24574219 19.04539063 17.05398437 18.93453125 17.88671875 18.8203125 C18.50160156 18.72492188 19.11648437 18.62953125 19.75 18.53125 C20.245 20.01625 20.245 20.01625 20.75 21.53125 C19.59338843 23.73932663 18.52322566 25.75802434 16.75 27.53125 C12.48667496 27.84092946 8.21068498 27.80970976 3.9375 27.84375 C2.73544922 27.87275391 1.53339844 27.90175781 0.29492188 27.93164062 C-0.86072266 27.94001953 -2.01636719 27.94839844 -3.20703125 27.95703125 C-4.26897705 27.97161377 -5.33092285 27.98619629 -6.42504883 28.0012207 C-9.95098854 27.41463061 -11.12275915 26.35795327 -13.25 23.53125 C-13.5 20.28125 -13.5 20.28125 -13.25 17.53125 C-11.6 17.53125 -9.95 17.53125 -8.25 17.53125 C-8.25 18.19125 -8.25 18.85125 -8.25 19.53125 C-4.785 19.03625 -4.785 19.03625 -1.25 18.53125 C-0.29979584 16.291415 -0.29979584 16.291415 -0.25 13.53125 C-2.60412766 10.92710286 -2.60412766 10.92710286 -5.25 8.53125 C-6.25 6.46875 -6.25 6.46875 -6.25 4.53125 C-4.56194348 1.21099177 -3.73944427 0.61125531 0 0 Z " fill="#2C77DF" transform="translate(216.25,225.46875)"/>
<path d="M0 0 C0.6875 1.625 0.6875 1.625 1 4 C-0.4375 7.25 -0.4375 7.25 -2 10 C-2.66 10 -3.32 10 -4 10 C-4 11.98 -4 13.96 -4 16 C-3.34 16.33 -2.68 16.66 -2 17 C-2.33 18.98 -2.66 20.96 -3 23 C-3.99 22.67 -4.98 22.34 -6 22 C-8.03627927 25.37720148 -8.24928036 27.96035139 -8.24723816 31.87379456 C-8.25352989 33.67565468 -8.25352989 33.67565468 -8.25994873 35.51391602 C-8.25432922 36.82875977 -8.24870972 38.14360352 -8.24291992 39.49829102 C-8.24399315 40.8997354 -8.24593243 42.30117935 -8.24867249 43.70262146 C-8.25352064 47.50883072 -8.24586296 51.31492274 -8.23571944 55.12111783 C-8.22692555 59.11182598 -8.22869673 63.10253059 -8.2290802 67.09324646 C-8.22814333 73.80249994 -8.21946086 80.51170824 -8.20581055 87.22094727 C-8.19012963 94.95635451 -8.18481093 102.6917121 -8.1855461 110.4271341 C-8.18622442 118.68124191 -8.17926219 126.93533079 -8.1700995 135.18943286 C-8.16797751 137.55662849 -8.16725956 139.92382103 -8.16686058 142.29101753 C-8.16584773 146.02975687 -8.15967517 149.76845536 -8.14969444 153.50718117 C-8.14543062 155.51724453 -8.14593661 157.52731627 -8.14663696 159.53738403 C-9.05836182 171.42723512 -9.05836182 171.42723512 -6 182 C-5.76636119 183.84891946 -5.58696365 185.70488031 -5.4375 187.5625 C-5.35371094 188.57441406 -5.26992187 189.58632813 -5.18359375 190.62890625 C-5.12300781 191.41136719 -5.06242188 192.19382812 -5 193 C-12.21124727 185.78875273 -11.22520512 169.99501472 -11.28216553 160.48780823 C-11.27968811 159.24482468 -11.27721069 158.00184113 -11.2746582 156.72119141 C-11.27902061 155.35593898 -11.28420875 153.99068899 -11.29014587 152.6254425 C-11.30338241 148.96206267 -11.30413198 145.29878694 -11.30158257 141.6353879 C-11.30050241 138.55686366 -11.30542257 135.47835961 -11.310188 132.39983976 C-11.32122994 125.12689561 -11.3217506 117.85400313 -11.31567383 110.58105469 C-11.30963719 103.12267841 -11.32194943 95.66449093 -11.3432439 88.20614684 C-11.36095773 81.76064513 -11.366846 75.315203 -11.36360615 68.8696779 C-11.3618088 65.03853032 -11.36427229 61.20751748 -11.37832069 57.37639236 C-11.50879577 18.47745677 -11.50879577 18.47745677 -4.375 6.5625 C-3.76398438 5.51191406 -3.15296875 4.46132812 -2.5234375 3.37890625 C-1 1 -1 1 0 0 Z " fill="#6399E5" transform="translate(137,134)"/>
<path d="M0 0 C1.670625 0.495 1.670625 0.495 3.375 1 C6.69459717 2.088643 6.69459717 2.088643 9 2 C10.66965451 2.31802943 12.33678518 2.64984951 14 3 C13.67 4.32 13.34 5.64 13 7 C13.71027344 7.13277344 14.42054688 7.26554687 15.15234375 7.40234375 C16.07144531 7.57894531 16.99054688 7.75554687 17.9375 7.9375 C18.85402344 8.11152344 19.77054688 8.28554688 20.71484375 8.46484375 C23 9 23 9 24 10 C25.4887186 10.08669432 26.981445 10.10703494 28.47265625 10.09765625 C29.82133789 10.09282227 29.82133789 10.09282227 31.19726562 10.08789062 C32.61555664 10.07532227 32.61555664 10.07532227 34.0625 10.0625 C35.01189453 10.05798828 35.96128906 10.05347656 36.93945312 10.04882812 C39.29303065 10.0370011 41.64648477 10.02052025 44 10 C44 10.66 44 11.32 44 12 C45.06334061 11.99738159 46.12668121 11.99476318 47.22224426 11.99206543 C74.75828327 11.93080751 102.28525516 12.11046755 129.81890869 12.46356201 C134.72234741 12.52584744 139.62582377 12.58502599 144.52929688 12.64453125 C154.01956857 12.76012416 163.50979685 12.87891785 173 13 C173 13.33 173 13.66 173 14 C155.96983625 14.04694083 138.939693 14.08209617 121.90947914 14.10362434 C114.0001775 14.11389063 106.09091629 14.12786084 98.18164062 14.15087891 C91.27941876 14.17095642 84.37722621 14.1837501 77.47497594 14.18817699 C73.82801323 14.19076034 70.18113432 14.19673245 66.53419876 14.21146011 C16.41747799 14.4054859 16.41747799 14.4054859 0 1 C0 0.67 0 0.34 0 0 Z " fill="#6F9EDD" transform="translate(145,345)"/>
<path d="M0 0 C0 0.33 0 0.66 0 1 C-0.59425781 1.08636719 -1.18851562 1.17273438 -1.80078125 1.26171875 C-14.11352066 3.34894829 -25.13173896 9.13173896 -34 18 C-35.32 18 -36.64 18 -38 18 C-38 17.34 -38 16.68 -38 16 C-38.71929687 15.7421875 -39.43859375 15.484375 -40.1796875 15.21875 C-43.14797801 13.93605383 -45.50627595 12.38996598 -48.125 10.5 C-48.97320312 9.8915625 -49.82140625 9.283125 -50.6953125 8.65625 C-51.45585937 8.1096875 -52.21640625 7.563125 -53 7 C-53.99 6.34 -54.98 5.68 -56 5 C-54.54364629 4.77825067 -53.08477044 4.57301302 -51.625 4.375 C-50.40683594 4.20097656 -50.40683594 4.20097656 -49.1640625 4.0234375 C-48.44992188 4.01570312 -47.73578125 4.00796875 -47 4 C-46.34 4.66 -45.68 5.32 -45 6 C-44.45730469 5.71125 -43.91460937 5.4225 -43.35546875 5.125 C-42.64003906 4.75375 -41.92460937 4.3825 -41.1875 4 C-40.47980469 3.62875 -39.77210938 3.2575 -39.04296875 2.875 C-37 2 -37 2 -34 2 C-34 2.66 -34 3.32 -34 4 C-33.01 4.33 -32.02 4.66 -31 5 C-30.3125 7.0625 -30.3125 7.0625 -30 9 C-29.67 8.67 -29.34 8.34 -29 8 C-27.00041636 7.95919217 -24.99954746 7.95745644 -23 8 C-23 7.01 -23 6.02 -23 5 C-15.09157119 1.22152846 -8.7458306 -0.15079018 0 0 Z " fill="#2174E5" transform="translate(288,158)"/>
<path d="M0 0 C0 4 0 4 -1.3984375 5.51953125 C-2.19121094 6.25236328 -2.19121094 6.25236328 -3 7 C-5.87043921 12.3360729 -6.21287025 17.99313127 -6.4375 23.9375 C-6.72128263 31.10718466 -7.56325869 38.29193701 -12.6328125 43.76171875 C-13.08398438 44.17035156 -13.53515625 44.57898438 -14 45 C-13.37031661 37.31786263 -13.37031661 37.31786263 -11.50219727 35.71435547 C-9.41798433 33.33578514 -9.55743484 31.65844628 -9.453125 28.52734375 C-9.41316406 27.46322266 -9.37320313 26.39910156 -9.33203125 25.30273438 C-9.30496094 24.19220703 -9.27789062 23.08167969 -9.25 21.9375 C-9.20746094 20.82310547 -9.16492188 19.70871094 -9.12109375 18.56054688 C-8.66732388 13.1140671 -8.66732388 13.1140671 -10 8 C-10.99 7.67 -11.98 7.34 -13 7 C-13 7.66 -13 8.32 -13 9 C-13.63808594 9.18175781 -14.27617187 9.36351562 -14.93359375 9.55078125 C-15.75988281 9.80214844 -16.58617187 10.05351562 -17.4375 10.3125 C-18.26121094 10.55613281 -19.08492187 10.79976562 -19.93359375 11.05078125 C-20.95646484 11.52064453 -20.95646484 11.52064453 -22 12 C-22.33 12.99 -22.66 13.98 -23 15 C-23.66 15 -24.32 15 -25 15 C-27.04190115 21.12570344 -26.1129859 26.08363949 -24 32 C-24.33 32.66 -24.66 33.32 -25 34 C-29.32859657 29.13032886 -29.44164924 25.11114409 -29.43359375 18.70703125 C-29 16 -29 16 -27.59765625 14.13671875 C-26 13 -26 13 -24 13 C-23.67 12.01 -23.34 11.02 -23 10 C-16.58372278 5.22598421 -8.1249773 0 0 0 Z " fill="#2A75D7" transform="translate(202,194)"/>
<path d="M0 0 C1.24598969 -0.00426498 2.49197937 -0.00852997 3.77572632 -0.01292419 C5.13859561 -0.01257475 6.50146488 -0.01211326 7.86433411 -0.0115509 C9.31385891 -0.01454639 10.76338291 -0.01794981 12.21290588 -0.02172852 C16.13672997 -0.03053477 20.06053221 -0.03290525 23.98436522 -0.0335443 C26.44102881 -0.03425691 28.89768692 -0.03639526 31.35434914 -0.03904152 C39.93987503 -0.04828496 48.52538543 -0.05237781 57.11091614 -0.05158997 C65.08893466 -0.05098998 73.06688539 -0.06152873 81.04488677 -0.07733363 C87.91395164 -0.09045223 94.78299448 -0.09577203 101.65207177 -0.09513456 C105.74585723 -0.09488076 109.83958245 -0.09766566 113.93335533 -0.10831261 C117.78870711 -0.11806616 121.64394195 -0.11802359 125.4992981 -0.11079597 C126.90525294 -0.10975897 128.31121535 -0.11205971 129.71715736 -0.11815643 C151.0747505 -0.20468802 151.0747505 -0.20468802 157.58235168 4.13371277 C155.60235168 5.12371277 153.62235168 6.11371277 151.58235168 7.13371277 C150.28026835 6.12459819 148.97818502 5.1154836 147.67610168 4.10636902 C140.35231413 0.70408711 130.68175504 1.99922489 122.81282043 2.02018738 C121.32397463 2.02046981 119.83512868 2.02031042 118.34628296 2.01974487 C114.32414536 2.01945909 110.30203786 2.02532032 106.27990723 2.03231883 C102.06920018 2.03858893 97.85849237 2.03915906 93.64778137 2.04034424 C85.68299013 2.04344679 77.71821268 2.05164564 69.75342751 2.06169373 C60.68207428 2.07288832 51.61072037 2.07837374 42.53936195 2.08338916 C23.88701739 2.09382919 5.23468565 2.11140774 -13.41764832 2.13371277 C-13.41764832 1.80371277 -13.41764832 1.47371277 -13.41764832 1.13371277 C-8.90336083 0.41751677 -4.56916156 0.00711148 0 0 Z " fill="#608EC8" transform="translate(182.4176483154297,112.86628723144531)"/>
<path d="M0 0 C0.66 0.33 1.32 0.66 2 1 C2 2.32 2 3.64 2 5 C1.071875 5.12375 1.071875 5.12375 0.125 5.25 C-2.18437567 5.81258459 -2.18437567 5.81258459 -3.25 8.0625 C-3.4975 8.701875 -3.745 9.34125 -4 10 C-5.32 10 -6.64 10 -8 10 C-8.93423645 13.01031744 -9.04449911 13.86650268 -8 17 C-9.32 17 -10.64 17 -12 17 C-12 18.65 -12 20.3 -12 22 C-10.02 22 -8.04 22 -6 22 C-6.33 23.65 -6.66 25.3 -7 27 C-8.98 27 -10.96 27 -13 27 C-13 26.34 -13 25.68 -13 25 C-13.99 24.34 -14.98 23.68 -16 23 C-16.3125 20.5 -16.3125 20.5 -16 18 C-15.34 17.34 -14.68 16.68 -14 16 C-13.35232207 13.42938689 -13.35232207 13.42938689 -13 11 C-15.97 11 -18.94 11 -22 11 C-21.34 12.98 -20.68 14.96 -20 17 C-20.99 17 -21.98 17 -23 17 C-23.33 14.69 -23.66 12.38 -24 10 C-21.29816945 8.64908472 -18.88191794 8.66141942 -15.875 8.4375 C-14.77929688 8.35371094 -13.68359375 8.26992187 -12.5546875 8.18359375 C-11.71164062 8.12300781 -10.86859375 8.06242188 -10 8 C-9.87625 6.865625 -9.7525 5.73125 -9.625 4.5625 C-9.41875 3.386875 -9.2125 2.21125 -9 1 C-6.01405576 -0.49297212 -3.29146376 -0.11755228 0 0 Z M-4 1 C-5.32 2.65 -6.64 4.3 -8 6 C-4.31245243 5.50168276 -2.39509338 4.89932357 0 2 C-1.32 1.67 -2.64 1.34 -4 1 Z " fill="#43C86C" transform="translate(310,227)"/>
<path d="M0 0 C4.87603084 4.87603084 6.25366992 13.92003973 6.4375 20.625 C6.22774483 26.32195055 4.75409781 31.6019728 3 37 C2.67 37 2.34 37 2 37 C1.875 29.375 1.875 29.375 3 26 C3.03954234 23.66700175 3.04401732 21.33291811 3 19 C2.21625 19.78375 1.4325 20.5675 0.625 21.375 C-0.91666667 22.91666667 -2.45833333 24.45833333 -4 26 C-3.835 25.195625 -3.67 24.39125 -3.5 23.5625 C-2.96808161 21.2715557 -2.96808161 21.2715557 -3 20 C-3.8353125 20.556875 -3.8353125 20.556875 -4.6875 21.125 C-7 22 -7 22 -9.75 21.125 C-10.4925 20.75375 -11.235 20.3825 -12 20 C-12 20.66 -12 21.32 -12 22 C-11.01 22 -10.02 22 -9 22 C-9 22.66 -9 23.32 -9 24 C-10.32 24 -11.64 24 -13 24 C-13.66 22.35 -14.32 20.7 -15 19 C-14.34 18.67 -13.68 18.34 -13 18 C-13 16.68 -13 15.36 -13 14 C-11.68 14.33 -10.36 14.66 -9 15 C-9 15.99 -9 16.98 -9 18 C-5.535 17.505 -5.535 17.505 -2 17 C-1.67 15.35 -1.34 13.7 -1 12 C-0.01 12.33 0.98 12.66 2 13 C1.67 11.783125 1.34 10.56625 1 9.3125 C0.19677787 6.12789396 -0.20641973 3.3027157 0 0 Z " fill="#48CE73" transform="translate(323,221)"/>
<path d="M0 0 C2.5625 0.4375 2.5625 0.4375 6 2 C6.84917447 3.53299813 7.68048383 5.07594422 8.5 6.625 C10.10731881 9.25285228 10.10731881 9.25285228 13 11 C20.21793103 12.22277215 27.73501121 11.5436892 35 11 C35 11.99 35 12.98 35 14 C27.41 14 19.82 14 12 14 C12 13.34 12 12.68 12 12 C11.071875 11.5978125 11.071875 11.5978125 10.125 11.1875 C8 10 8 10 6 7 C5.34 7 4.68 7 4 7 C3.67 6.34 3.34 5.68 3 5 C1.68 5 0.36 5 -1 5 C-1.11472656 5.98355469 -1.22945313 6.96710938 -1.34765625 7.98046875 C-1.957107 12.2337709 -3.13820309 16.22520739 -4.4375 20.3125 C-4.65470703 21.02728516 -4.87191406 21.74207031 -5.09570312 22.47851562 C-6.75026829 27.75026829 -6.75026829 27.75026829 -9 30 C-7.94394135 23.44131995 -6.60274104 16.96021098 -5.0625 10.5 C-4.90491211 9.80583984 -4.74732422 9.11167969 -4.58496094 8.39648438 C-3.70950139 4.82096019 -3.01132105 2.26492523 0 0 Z " fill="#6DD18D" transform="translate(269,197)"/>
<path d="M0 0 C2.475 0.99 2.475 0.99 5 2 C5 2.66 5 3.32 5 4 C5.680625 4.165 6.36125 4.33 7.0625 4.5 C10.75140011 6.38369367 12.73928134 8.86541972 15.3515625 12.02734375 C16.82381029 13.78915687 18.35054016 15.40552216 20 17 C19 19 19 19 17 20 C16.67 19.01 16.34 18.02 16 17 C13.41927097 14.67734388 12.54823932 14 9 14 C8.7525 13.38125 8.505 12.7625 8.25 12.125 C7.18539778 9.85708859 7.18539778 9.85708859 5 9.0625 C2.21907692 7.58513461 1.93021425 5.93375263 1 3 C0.67 2.01 0.34 1.02 0 0 Z M-14 11 C-7.73 11.33 -1.46 11.66 5 12 C5.33 12.66 5.66 13.32 6 14 C8.02463255 14.65213292 8.02463255 14.65213292 10 15 C10.33 16.65 10.66 18.3 11 20 C10.34 19.731875 9.68 19.46375 9 19.1875 C8.01 18.795625 7.02 18.40375 6 18 C4.824375 17.525625 3.64875 17.05125 2.4375 16.5625 C-2.90560426 14.55242623 -8.45090246 13.30403792 -14 12 C-14 11.67 -14 11.34 -14 11 Z " fill="#4E8DDF" transform="translate(238,173)"/>
<path d="M0 0 C0.33 0 0.66 0 1 0 C0.98428955 0.61407715 0.9685791 1.2281543 0.95239258 1.86083984 C0.88923806 4.69879589 0.85075823 7.53660333 0.8125 10.375 C0.78736328 11.34050781 0.76222656 12.30601562 0.73632812 13.30078125 C0.66849395 20.03897584 1.68859978 25.6712281 4 32 C6.1341663 30.43708502 6.1341663 30.43708502 8 28 C8.44637805 24.63046936 8.44637805 24.63046936 8.1875 21 C7.8892853 13.39149526 7.8892853 13.39149526 9 10 C9.66 10 10.32 10 11 10 C10.89300781 10.6290625 10.78601563 11.258125 10.67578125 11.90625 C9.90136462 17.43541818 10.01883432 21.07734767 12.296875 26.171875 C13.30840046 28.80184118 13.20829602 31.2227197 13 34 C12.67 33.34 12.34 32.68 12 32 C9.47266765 31.34444881 9.47266765 31.34444881 7 31 C6.566875 32.1446875 6.566875 32.1446875 6.125 33.3125 C5 36 5 36 3 39 C-1.52620756 25.50220246 -3.81917845 14.08322054 0 0 Z " fill="#659DE1" transform="translate(160,198)"/>
<path d="M0 0 C0 0.33 0 0.66 0 1 C-0.59425781 1.08636719 -1.18851562 1.17273438 -1.80078125 1.26171875 C-14.11352066 3.34894829 -25.13173896 9.13173896 -34 18 C-35.32 18 -36.64 18 -38 18 C-38 17.34 -38 16.68 -38 16 C-38.721875 15.773125 -39.44375 15.54625 -40.1875 15.3125 C-43.53209313 13.75168987 -45.51603959 11.6968713 -48 9 C-46.02 9 -44.04 9 -42 9 C-41.67 9.99 -41.34 10.98 -41 12 C-37.76421296 13.31828361 -34.44785988 13.07836045 -31 13 C-30.7834375 12.0409375 -30.7834375 12.0409375 -30.5625 11.0625 C-30 9 -30 9 -29 8 C-27.00041636 7.95919217 -24.99954746 7.95745644 -23 8 C-23 7.01 -23 6.02 -23 5 C-15.09157119 1.22152846 -8.7458306 -0.15079018 0 0 Z " fill="#5795DE" transform="translate(288,158)"/>
<path d="M0 0 C1.87890625 1.66796875 1.87890625 1.66796875 3 3 C-0.87122439 2.5925027 -3.8010877 1.62615429 -7.25 -0.0625 C-16.76224119 -4.01152134 -29.37345153 -3.31854325 -38.95703125 0.12890625 C-40.94290758 0.97565658 -42.90998506 1.85606239 -44.875 2.75 C-48.16385138 4.06554055 -48.81803974 4.01932926 -52 3 C-50.17215398 2.03124161 -48.33739059 1.07553127 -46.5 0.125 C-44.96859375 -0.67550781 -44.96859375 -0.67550781 -43.40625 -1.4921875 C-29.6174102 -7.59596292 -13.3711595 -6.81027493 0 0 Z " fill="#63C88A" transform="translate(319,168)"/>
<path d="M0 0 C4.68276664 2.95924836 9.1201919 5.98328281 13.25 9.6875 C18.55502076 14.6982988 18.55502076 14.6982988 25.5 15.8125 C28.52073561 15.11125781 31.18362032 14.28017258 34 13 C33.67 14.32 33.34 15.64 33 17 C30.03 17.66 27.06 18.32 24 19 C24 19.66 24 20.32 24 21 C22.02 20.67 20.04 20.34 18 20 C18 18.68 18 17.36 18 16 C17.34 16 16.68 16 16 16 C16 15.34 16 14.68 16 14 C12.37 13.01 8.74 12.02 5 11 C4.67 9.68 4.34 8.36 4 7 C2.68133728 5.321702 1.34919532 3.65385233 0 2 C0 1.34 0 0.68 0 0 Z " fill="#3A81E0" transform="translate(227,306)"/>
<path d="M0 0 C3.52773771 0.50396253 4.97220555 1.07331733 7.5 3.5 C6.90832031 3.51417969 6.31664062 3.52835938 5.70703125 3.54296875 C1.20077808 3.81496119 -0.92637258 4.02197715 -4.5 7 C-5.16 7.825 -5.82 8.65 -6.5 9.5 C-6.83 9.83 -7.16 10.16 -7.5 10.5 C-7.57319621 13.19654854 -7.59242537 15.86691458 -7.5625 18.5625 C-7.55798828 19.32111328 -7.55347656 20.07972656 -7.54882812 20.86132812 C-7.5370068 22.74091871 -7.51907078 24.62046899 -7.5 26.5 C-6.84 26.5 -6.18 26.5 -5.5 26.5 C-5.231875 27.469375 -4.96375 28.43875 -4.6875 29.4375 C-4.295625 30.448125 -3.90375 31.45875 -3.5 32.5 C-2.51 32.83 -1.52 33.16 -0.5 33.5 C0.6875 36.0625 0.6875 36.0625 1.5 38.5 C-4.27820329 36.02362716 -7.05869595 32.19637612 -9.5 26.5 C-11.65194677 19.06600205 -10.88054124 12.33393897 -7.5 5.5 C-5.23378072 1.61505266 -4.50721943 0.64388849 0 0 Z " fill="#77A4E0" transform="translate(232.5,187.5)"/>
<path d="M0 0 C2.06615965 3.43098432 2.06615965 3.43098432 1.77319336 5.95068359 C1.56831299 6.63469238 1.36343262 7.31870117 1.15234375 8.0234375 C-0.25411226 13.5699288 -0.42247732 18.9209339 -0.4375 24.625 C-0.44209229 25.67445801 -0.44668457 26.72391602 -0.45141602 27.80517578 C-0.33925018 35.70043777 1.00403099 42.09919702 4.00390625 49.3671875 C4.33261719 50.23601562 4.66132813 51.10484375 5 52 C4.67 52.66 4.34 53.32 4 54 C1.17438373 50.20307814 -0.56638908 47.81430721 0 43 C-0.66 43 -1.32 43 -2 43 C-2.96891225 34.32936199 -3.21480193 25.72032165 -3.25 17 C-3.270625 15.69160156 -3.29125 14.38320312 -3.3125 13.03515625 C-3.31765625 11.78605469 -3.3228125 10.53695312 -3.328125 9.25 C-3.3374707 8.12078125 -3.34681641 6.9915625 -3.35644531 5.828125 C-3 3 -3 3 -1.47949219 1.109375 C-0.99125977 0.74328125 -0.50302734 0.3771875 0 0 Z " fill="#3F82D8" transform="translate(155,188)"/>
<path d="M0 0 C1 1 1 1 1.1875 4.4375 C1 8 1 8 -1 10 C-4.09771665 10.32954432 -6.17331023 10.45334601 -8.9375 8.9375 C-10.68524469 5.75043615 -9.92651358 3.39721645 -9 0 C-5.79032072 -2.86578508 -3.58848064 -1.8427333 0 0 Z " fill="#5D90D3" transform="translate(212,211)"/>
<path d="M0 0 C0.66 0 1.32 0 2 0 C2.185625 1.11375 2.37125 2.2275 2.5625 3.375 C3.036875 4.57125 3.51125 5.7675 4 7 C7.51400668 8.54086322 7.51400668 8.54086322 11 9 C10.67 10.32 10.34 11.64 10 13 C3.4 12.67 -3.2 12.34 -10 12 C-10 11.01 -10 10.02 -10 9 C-6.12315913 7.80712589 -3.08378077 7 1 7 C0.649375 6.21625 0.29875 5.4325 -0.0625 4.625 C-0.371875 3.75875 -0.68125 2.8925 -1 2 C-0.67 1.34 -0.34 0.68 0 0 Z " fill="#2271E0" transform="translate(220,239)"/>
<path d="M0 0 C0.66 0 1.32 0 2 0 C4.28831108 4.57662216 3.18502705 10.97497292 3.1875 16 C3.19974609 17.3096875 3.21199219 18.619375 3.22460938 19.96875 C3.22750977 21.84046875 3.22750977 21.84046875 3.23046875 23.75 C3.23457764 24.89984375 3.23868652 26.0496875 3.24291992 27.234375 C3 30 3 30 1 32 C0.40165446 33.52056618 -0.13506656 35.06612088 -0.625 36.625 C-0.88539063 37.44226563 -1.14578125 38.25953125 -1.4140625 39.1015625 C-1.60742188 39.72804687 -1.80078125 40.35453125 -2 41 C-2.66 41 -3.32 41 -4 41 C-4 41.99 -4 42.98 -4 44 C-4.66 44 -5.32 44 -6 44 C-5.02590056 41.042599 -4.03997992 38.10476491 -2.9296875 35.1953125 C1.03781037 23.64548537 0.38671005 12.06832817 0 0 Z " fill="#5A95DC" transform="translate(348,199)"/>
<path d="M0 0 C0.99 0.33 1.98 0.66 3 1 C3.33 1.99 3.66 2.98 4 4 C4.825 4.309375 5.65 4.61875 6.5 4.9375 C9 6 9 6 9.875 7.6875 C10.04759384 10.88048604 9.54377249 13.85820342 9 17 C8.34 17 7.68 17 7 17 C6.67 16.34 6.34 15.68 6 15 C5.01 15.99 4.02 16.98 3 18 C2.34 16.35 1.68 14.7 1 13 C2.32 13 3.64 13 5 13 C4.67 12.34 4.34 11.68 4 11 C1.97536745 10.34786708 1.97536745 10.34786708 0 10 C0.33 8.68 0.66 7.36 1 6 C0.01 5.34 -0.98 4.68 -2 4 C-1 1 -1 1 0 0 Z " fill="#1E71E3" transform="translate(174,236)"/>
<path d="M0 0 C0 0.66 0 1.32 0 2 C-0.78503906 2.36351562 -1.57007813 2.72703125 -2.37890625 3.1015625 C-8.75393212 6.15218838 -13.79402361 9.24671721 -19 14 C-19.66 14 -20.32 14 -21 14 C-21.66 15.32 -22.32 16.64 -23 18 C-25 15 -25 15 -25 13 C-23.68 13 -22.36 13 -21 13 C-21.33 11.02 -21.66 9.04 -22 7 C-19.36 7 -16.72 7 -14 7 C-14 5.68 -14 4.36 -14 3 C-11.69 3 -9.38 3 -7 3 C-7 2.34 -7 1.68 -7 1 C-4.53721199 -0.231394 -2.7204945 -0.07159196 0 0 Z " fill="#4C8CE3" transform="translate(190,159)"/>
<path d="M0 0 C0.98120464 3.05263664 0.98120464 4.94736336 0 8 C0.99 8.33 1.98 8.66 3 9 C-0.22791555 11.1519437 -1.28400809 11.20086443 -5 11 C-5 12.98 -5 14.96 -5 17 C-5.66 17 -6.32 17 -7 17 C-7.0825 17.598125 -7.165 18.19625 -7.25 18.8125 C-8.24028397 21.70082825 -9.34936773 22.52742652 -12 24 C-14.75 24.1875 -14.75 24.1875 -17 24 C-15.19611596 20.67705572 -13.25790131 18.2540985 -10.53515625 15.65625 C-6.374944 11.16787851 -1.94385534 5.83156603 0 0 Z " fill="#498DE0" transform="translate(341,243)"/>
<path d="M0 0 C0.66 0.99 1.32 1.98 2 3 C1.72285156 3.54269531 1.44570312 4.08539063 1.16015625 4.64453125 C0.79792969 5.35996094 0.43570313 6.07539063 0.0625 6.8125 C-0.29714844 7.52019531 -0.65679687 8.22789062 -1.02734375 8.95703125 C-2.10730516 11.11810285 -2.10730516 11.11810285 -3 14 C-3.66 14 -4.32 14 -5 14 C-5.66 20.27 -6.32 26.54 -7 33 C-5.68 33.33 -4.36 33.66 -3 34 C-2.67 35.65 -2.34 37.3 -2 39 C-5.45572632 37.51897443 -7.91142717 36.17153653 -10 33 C-10.62507652 26.4006344 -8.57804079 19.9407718 -6.6875 13.6875 C-6.48713135 13.0181543 -6.2867627 12.34880859 -6.08032227 11.65917969 C-4.63490656 7.17028324 -2.74181944 3.77073249 0 0 Z " fill="#6BCD93" transform="translate(252,278)"/>
<path d="M0 0 C0.6875 1.625 0.6875 1.625 1 4 C-0.4375 7.25 -0.4375 7.25 -2 10 C-2.66 10 -3.32 10 -4 10 C-4 11.98 -4 13.96 -4 16 C-3.34 16.33 -2.68 16.66 -2 17 C-2.33 18.98 -2.66 20.96 -3 23 C-3.99 22.67 -4.98 22.34 -6 22 C-6.99 24.64 -7.98 27.28 -9 30 C-9.33 30 -9.66 30 -10 30 C-10.31232497 18.6001385 -6.58895134 10.68430362 -1 1 C-0.67 0.67 -0.34 0.34 0 0 Z " fill="#2877E6" transform="translate(137,134)"/>
<path d="M0 0 C0.69480469 0.15984375 1.38960938 0.3196875 2.10546875 0.484375 C2.66878906 0.73703125 3.23210937 0.9896875 3.8125 1.25 C4.1425 2.24 4.4725 3.23 4.8125 4.25 C3.07221934 6.57037422 1.77113243 8.08707038 -1.1640625 8.5859375 C-3.3125 8.625 -3.3125 8.625 -7.1875 8.25 C-7.8475 7.59 -8.5075 6.93 -9.1875 6.25 C-8.8125 3.125 -8.8125 3.125 -8.1875 0.25 C-5.14123824 -0.70837449 -3.09536364 -0.76658162 0 0 Z M-7.1875 3.25 C-7.1875 3.91 -7.1875 4.57 -7.1875 5.25 C-6.5275 5.25 -5.8675 5.25 -5.1875 5.25 C-5.1875 4.59 -5.1875 3.93 -5.1875 3.25 C-5.8475 3.25 -6.5075 3.25 -7.1875 3.25 Z " fill="#40C368" transform="translate(274.1875,237.75)"/>
<path d="M0 0 C2 1 2 1 2.71484375 2.609375 C3.12324363 6.03322057 2.33746652 8.90214465 1.5625 12.25 C1.27503906 13.51328125 0.98757812 14.7765625 0.69140625 16.078125 C0.46324219 17.04234375 0.23507813 18.0065625 0 19 C-3.06382739 18.67567593 -3.98970965 18.01098513 -6.140625 15.71484375 C-6.83671875 14.79832031 -7.5328125 13.88179687 -8.25 12.9375 C-8.95640625 12.01839844 -9.6628125 11.09929687 -10.390625 10.15234375 C-10.92171875 9.44207031 -11.4528125 8.73179687 -12 8 C-10.68 7.67 -9.36 7.34 -8 7 C-7.34 8.32 -6.68 9.64 -6 11 C-4.68 10.01 -3.36 9.02 -2 8 C-2 8.99 -2 9.98 -2 11 C-1.34 11 -0.68 11 0 11 C0 7.37 0 3.74 0 0 Z " fill="#4485DC" transform="translate(183,242)"/>
<path d="M0 0 C4.87685861 1.35468295 6.48592381 3.71675909 9 8 C6.92446352 8.5534764 5.15634036 9 3 9 C2.67 9.66 2.34 10.32 2 11 C2 10.34 2 9.68 2 9 C1.34 9 0.68 9 0 9 C-0.66 11.31 -1.32 13.62 -2 16 C-3.32 15.67 -4.64 15.34 -6 15 C-5.73445312 14.50371094 -5.46890625 14.00742188 -5.1953125 13.49609375 C-2.88379288 9.05021478 -1.21524919 4.86099676 0 0 Z " fill="#3179DB" transform="translate(242,239)"/>
<path d="M0 0 C0.66 0 1.32 0 2 0 C2.99 1.98 3.98 3.96 5 6 C5.99 6 6.98 6 8 6 C8.33 4.02 8.66 2.04 9 0 C11 3 11 3 10.6796875 5.12109375 C9.11448177 9.62675878 7.85981689 12.93876591 4 16 C3.34 15.67 2.68 15.34 2 15 C1.52425562 12.45975996 1.15992453 9.99948536 0.875 7.4375 C0.78863281 6.72658203 0.70226562 6.01566406 0.61328125 5.28320312 C0.40065217 3.52310688 0.19927303 1.76165836 0 0 Z " fill="#5FCE87" transform="translate(330,229)"/>
<path d="M0 0 C0.33 0 0.66 0 1 0 C1.02505615 1.15411377 1.0501123 2.30822754 1.07592773 3.49731445 C1.17092765 7.8268322 1.27091253 12.15622357 1.37231445 16.4855957 C1.41531666 18.35047424 1.4570119 20.21538343 1.49731445 22.08032227 C0.41789112 38.01440344 0.41789112 38.01440344 4 52 C4.23363881 53.84891946 4.41303635 55.70488031 4.5625 57.5625 C4.64628906 58.57441406 4.73007813 59.58632813 4.81640625 60.62890625 C4.87699219 61.41136719 4.93757812 62.19382812 5 63 C-0.04293067 57.95706933 -0.04439136 49.57504202 -0.11352539 42.79907227 C-0.11336856 40.80484325 -0.10780867 38.81060943 -0.09765625 36.81640625 C-0.0962413 35.76090073 -0.09482635 34.7053952 -0.09336853 33.61790466 C-0.08779722 30.26607357 -0.07525002 26.91431071 -0.0625 23.5625 C-0.05748129 21.28190201 -0.05291903 19.00130297 -0.04882812 16.72070312 C-0.0378372 11.14711237 -0.02112776 5.57356106 0 0 Z " fill="#3978D2" transform="translate(127,264)"/>
<path d="M0 0 C1.65 0 3.3 0 5 0 C5 0.66 5 1.32 5 2 C6.65 2.33 8.3 2.66 10 3 C8.515 5.475 8.515 5.475 7 8 C10.96 8 14.92 8 19 8 C13.86198723 10.56900639 9.65893305 10.68697215 4 10 C1.3125 8.375 1.3125 8.375 0 6 C-0.25 2.75 -0.25 2.75 0 0 Z " fill="#3C7FD5" transform="translate(203,243)"/>
<path d="M0 0 C5.41209071 4.6108594 6.02242696 12.90635374 6.875 19.625 C7.43017597 27.56506391 5.62152374 35.26798849 4 43 C3.67 43 3.34 43 3 43 C3.01571045 42.17387207 3.0314209 41.34774414 3.04760742 40.49658203 C3.09922737 37.38413888 3.13658622 34.27191642 3.16479492 31.15917969 C3.18701479 29.16847095 3.22516595 27.17796032 3.26367188 25.1875 C3.31539982 18.35941155 3.03920616 12.48112285 0.6496582 6.04638672 C0 4 0 4 0 0 Z " fill="#6BCD98" transform="translate(338,189)"/>
<path d="M0 0 C0.66 0.33 1.32 0.66 2 1 C-0.85211349 4.01056424 -3.2436708 6.25599001 -7 8 C-7.33 8.66 -7.66 9.32 -8 10 C-8.66 10 -9.32 10 -10 10 C-12.04190115 16.12570344 -11.1129859 21.08363949 -9 27 C-9.33 27.66 -9.66 28.32 -10 29 C-14.32859657 24.13032886 -14.44164924 20.11114409 -14.43359375 13.70703125 C-14 11 -14 11 -12.59765625 9.13671875 C-11 8 -11 8 -9 8 C-8.67 7.01 -8.34 6.02 -8 5 C-6.22265625 3.578125 -6.22265625 3.578125 -4.0625 2.25 C-3.35222656 1.80140625 -2.64195312 1.3528125 -1.91015625 0.890625 C-1.27980469 0.59671875 -0.64945313 0.3028125 0 0 Z " fill="#6095DA" transform="translate(187,199)"/>
<path d="M0 0 C1.26457031 0.04640625 2.52914062 0.0928125 3.83203125 0.140625 C5.74048828 0.19476563 5.74048828 0.19476563 7.6875 0.25 C9.15123047 0.31960937 9.15123047 0.31960937 10.64453125 0.390625 C10.64453125 1.380625 10.64453125 2.370625 10.64453125 3.390625 C6.68453125 3.390625 2.72453125 3.390625 -1.35546875 3.390625 C-1.35546875 5.700625 -1.35546875 8.010625 -1.35546875 10.390625 C-0.03546875 10.390625 1.28453125 10.390625 2.64453125 10.390625 C2.31453125 12.700625 1.98453125 15.010625 1.64453125 17.390625 C1.41765625 16.83375 1.19078125 16.276875 0.95703125 15.703125 C-0.33277538 13.18118682 -0.33277538 13.18118682 -2.91796875 10.890625 C-6.35546875 7.36498397 -6.35546875 7.36498397 -6.35546875 4.390625 C-4.64931867 0.97198227 -3.86679441 0.45015069 0 0 Z " fill="#5890DA" transform="translate(216.35546875,225.609375)"/>
<path d="M0 0 C0.91587891 -0.020625 1.83175781 -0.04125 2.77539062 -0.0625 C8.482684 -0.09527699 12.53993887 0.46494591 17.5625 3.25 C18.0575 4.24 18.0575 4.24 18.5625 5.25 C17.89089844 5.105625 17.21929687 4.96125 16.52734375 4.8125 C5.24998258 2.71709354 -6.00969096 3.05960974 -17.4375 3.25 C-17.1075 2.59 -16.7775 1.93 -16.4375 1.25 C-11.06281042 -0.10891665 -5.51062205 0.03089347 0 0 Z " fill="#639BDA" transform="translate(209.4375,155.75)"/>
<path d="M0 0 C3.3 0 6.6 0 10 0 C10.08159574 4.16138263 9.98248524 7.9472484 9 12 C10.98 12 12.96 12 15 12 C14.67 13.65 14.34 15.3 14 17 C12.02 17 10.04 17 8 17 C8 16.34 8 15.68 8 15 C7.01 14.34 6.02 13.68 5 13 C4.6875 10.5 4.6875 10.5 5 8 C5.66 7.34 6.32 6.68 7 6 C7.64767793 3.42938689 7.64767793 3.42938689 8 1 C5.36 1 2.72 1 0 1 C0 0.67 0 0.34 0 0 Z " fill="#76D393" transform="translate(289,237)"/>
<path d="M0 0 C1.670625 0.495 1.670625 0.495 3.375 1 C6.69459717 2.088643 6.69459717 2.088643 9 2 C10.66965451 2.31802943 12.33678518 2.64984951 14 3 C13.67 4.32 13.34 5.64 13 7 C13.68707031 7.10957031 14.37414062 7.21914063 15.08203125 7.33203125 C15.98308594 7.49058594 16.88414062 7.64914062 17.8125 7.8125 C19.15248047 8.03873047 19.15248047 8.03873047 20.51953125 8.26953125 C23.18321256 9.05395393 24.25690322 9.88627799 26 12 C16.39884985 11.34537613 7.38554568 7.04271919 0 1 C0 0.67 0 0.34 0 0 Z " fill="#4E8BDE" transform="translate(145,345)"/>
<path d="M0 0 C2.51083114 1.25541557 2.87125446 2.50063488 4 5 C5.423125 4.938125 5.423125 4.938125 6.875 4.875 C10 5 10 5 12 7 C13.31747324 7.69748583 14.64914193 8.36959957 16 9 C14.4375 9.6875 14.4375 9.6875 12 10 C9.64903024 9.0421975 7.31648799 8.03842565 5 7 C0.23460375 6.00147044 -4.52647291 5.70491424 -9.375 5.4375 C-10.47908203 5.37272461 -10.47908203 5.37272461 -11.60546875 5.30664062 C-13.40348068 5.20156201 -15.20171958 5.10037907 -17 5 C-17 4.67 -17 4.34 -17 4 C-12.05 4 -7.1 4 -2 4 C-1.34 2.68 -0.68 1.36 0 0 Z " fill="#5E9FE8" transform="translate(306,153)"/>
<path d="M0 0 C2.97 0 5.94 0 9 0 C9 0.66 9 1.32 9 2 C9.66 2 10.32 2 11 2 C11.66 3.98 12.32 5.96 13 8 C12.01 8 11.02 8 10 8 C9.67 6.68 9.34 5.36 9 4 C6.03 3.505 6.03 3.505 3 3 C4.98 4.32 6.96 5.64 9 7 C8.34 7.66 7.68 8.32 7 9 C3.375 8.625 3.375 8.625 0 8 C0 5.36 0 2.72 0 0 Z " fill="#5CCC84" transform="translate(273,226)"/>
<path d="M0 0 C0.33 0.66 0.66 1.32 1 2 C1.66 2 2.32 2 3 2 C3.45663381 11.65695939 3.45663381 11.65695939 1.9375 16.125 C-0.81503003 18.78873874 -3.26615825 18.78865047 -7 19 C-3.42045455 12.35227273 -3.42045455 12.35227273 -0.6875 10.0625 C1.20714709 8.18357621 1.20714709 8.18357621 1.02734375 5.98046875 C0.77775805 3.97323726 0.39668197 1.98340987 0 0 Z " fill="#5ECF88" transform="translate(260,259)"/>
<path d="M0 0 C2.89023366 2.89023366 3.71832885 6.38201326 4.9375 10.1875 C5.20884766 10.93064453 5.48019531 11.67378906 5.75976562 12.43945312 C7.4983566 17.93455645 7.4983566 17.93455645 6.01220703 21.11181641 C4.62890625 23.05078125 4.62890625 23.05078125 2 26 C1.67 24.68 1.34 23.36 1 22 C1.66 22 2.32 22 3 22 C3.23428313 17.2102679 3.23428313 17.2102679 1 13 C0.5859375 9.86328125 0.5859375 9.86328125 0.375 6.3125 C0.30023438 5.13300781 0.22546875 3.95351562 0.1484375 2.73828125 C0.09945312 1.83464844 0.05046875 0.93101562 0 0 Z " fill="#5C95D9" transform="translate(251,247)"/>
<path d="M0 0 C6.93 0.33 13.86 0.66 21 1 C21.33 1.66 21.66 2.32 22 3 C9.13 3.99 9.13 3.99 -4 5 C-4 4.34 -4 3.68 -4 3 C-2.68 2.34 -1.36 1.68 0 1 C0 0.67 0 0.34 0 0 Z " fill="#2674D2" transform="translate(282,154)"/>
<path d="M0 0 C1.04282973 3.1284892 0.74888239 4.66868668 0.23095703 7.82861328 C-0.25016663 12.35198941 0.18105946 16.90705043 0.4375 21.4375 C0.48970703 22.45521484 0.54191406 23.47292969 0.59570312 24.52148438 C0.72446093 27.01470369 0.8593802 29.50742633 1 32 C-3.12421453 27.87578547 -3.12577893 20.61941505 -3.3125 15 C-3.21988532 9.69570445 -1.77487985 4.96543766 0 0 Z " fill="#78D39C" transform="translate(259,227)"/>
<path d="M0 0 C0 4 0 4 -1.39453125 5.45703125 C-1.92433594 5.96621094 -2.45414063 6.47539062 -3 7 C-3.99373439 9.2603044 -3.99373439 9.2603044 -4.6875 11.6875 C-4.93886719 12.49574219 -5.19023437 13.30398437 -5.44921875 14.13671875 C-5.72185547 15.05904297 -5.72185547 15.05904297 -6 16 C-6.33 16 -6.66 16 -7 16 C-7 12.04 -7 8.08 -7 4 C-8.98 4.33 -10.96 4.66 -13 5 C-8.77614544 1.55834073 -5.49939416 0 0 0 Z " fill="#6B9ADF" transform="translate(202,194)"/>
<path d="M0 0 C1 2 1 2 0.0625 5.125 C-0.288125 6.07375 -0.63875 7.0225 -1 8 C-0.34 8.33 0.32 8.66 1 9 C0.01 9.33 -0.98 9.66 -2 10 C-2 14.95 -2 19.9 -2 25 C-2.99 24.34 -3.98 23.68 -5 23 C-5.97266953 15.64776266 -5.81401408 8.45448536 -2 2 C-1.34 1.34 -0.68 0.68 0 0 Z " fill="#5A94D8" transform="translate(192,244)"/>
<path d="M0 0 C0.33 0.66 0.66 1.32 1 2 C0.67 2.66 0.34 3.32 0 4 C-0.66 4 -1.32 4 -2 4 C-2.33 5.32 -2.66 6.64 -3 8 C-3.99 8 -4.98 8 -6 8 C-6 8.66 -6 9.32 -6 10 C-9.7615584 13.64757179 -13.03533083 14.83184255 -18 16 C-15.19195732 13.03595495 -12.81684226 10.55500981 -9 9 C-9 8.34 -9 7.68 -9 7 C-7.03125 5.2734375 -7.03125 5.2734375 -4.5 3.375 C-3.24703125 2.42753906 -3.24703125 2.42753906 -1.96875 1.4609375 C-1.3190625 0.97882813 -0.669375 0.49671875 0 0 Z " fill="#649EDC" transform="translate(316,273)"/>
<path d="M0 0 C4.6538631 8.99746867 3.51632146 17.51310256 0.65625 26.98046875 C0.4396875 27.64691406 0.223125 28.31335938 0 29 C-0.33 29 -0.66 29 -1 29 C-1.125 21.375 -1.125 21.375 0 18 C0.08021999 16.59175107 0.10765977 15.18002769 0.09765625 13.76953125 C0.09443359 12.96708984 0.09121094 12.16464844 0.08789062 11.33789062 C0.07951172 10.50451172 0.07113281 9.67113281 0.0625 8.8125 C0.05573242 7.5450293 0.05573242 7.5450293 0.04882812 6.25195312 C0.03705403 4.16793845 0.0191189 2.08396023 0 0 Z " fill="#70CF92" transform="translate(326,229)"/>
<path d="M0 0 C0.33 0 0.66 0 1 0 C1.01417969 1.12535156 1.02835938 2.25070313 1.04296875 3.41015625 C1.2989686 13.07467967 2.54639991 21.1254981 6.0390625 30.15625 C6.35617188 31.0946875 6.67328125 32.033125 7 33 C6.67 33.66 6.34 34.32 6 35 C3.17438373 31.20307814 1.43361092 28.81430721 2 24 C1.34 24 0.68 24 0 24 C0 16.08 0 8.16 0 0 Z " fill="#7FB7E7" transform="translate(153,207)"/>
<path d="M0 0 C3.875 3.75 3.875 3.75 5 6 C4.94921875 8.2421875 4.94921875 8.2421875 4.6875 10.875 C4.60886719 11.73867187 4.53023438 12.60234375 4.44921875 13.4921875 C4 16 4 16 2 20 C2 16.37 2 12.74 2 9 C1.34 9 0.68 9 0 9 C0 6.03 0 3.06 0 0 Z " fill="#6AA6E3" transform="translate(258,192)"/>
<path d="M0 0 C0.66 0.33 1.32 0.66 2 1 C2 1.66 2 2.32 2 3 C2.804375 3.2475 3.60875 3.495 4.4375 3.75 C7 5 7 5 7.8125 7.125 C7.874375 7.74375 7.93625 8.3625 8 9 C7.34 9 6.68 9 6 9 C6 9.66 6 10.32 6 11 C5.01 10.67 4.02 10.34 3 10 C3 9.01 3 8.02 3 7 C1.35 6.67 -0.3 6.34 -2 6 C-1.125 1.125 -1.125 1.125 0 0 Z " fill="#216DDA" transform="translate(250,186)"/>
<path d="M0 0 C2.35500948 0.11517421 4.70849073 0.24187978 7.0625 0.375 C8.37347656 0.44460937 9.68445313 0.51421875 11.03515625 0.5859375 C14.98136957 0.99805436 18.24117073 1.79756567 22 3 C20.35 4.32 18.7 5.64 17 7 C14.08482708 5.92598892 12.22189824 5.22189824 10 3 C7.57284794 2.32059533 7.57284794 2.32059533 4.875 1.875 C3.96492188 1.70742187 3.05484375 1.53984375 2.1171875 1.3671875 C1.41851562 1.24601562 0.71984375 1.12484375 0 1 C0 0.67 0 0.34 0 0 Z " fill="#659CE4" transform="translate(318,113)"/>
<path d="M0 0 C0.64324219 0.16371094 1.28648437 0.32742187 1.94921875 0.49609375 C5.92840171 1.15334676 9.7881437 1.106353 13.8125 1.0625 C14.60076172 1.05798828 15.38902344 1.05347656 16.20117188 1.04882812 C18.13414761 1.03711312 20.06708393 1.01917998 22 1 C21.67 1.99 21.34 2.98 21 4 C14.73 4 8.46 4 2 4 C1.34 2.68 0.68 1.36 0 0 Z " fill="#71CE91" transform="translate(281,202)"/>
<path d="M0 0 C1.32 0.33 2.64 0.66 4 1 C4 1.66 4 2.32 4 3 C4.66 3.33 5.32 3.66 6 4 C6.625 6.0625 6.625 6.0625 7 8 C7.66 8 8.32 8 9 8 C11.25684543 13.36000789 12.36263859 17.1977825 12 23 C10 20 10 20 8.6875 16.375 C6.55952908 10.50136599 3.45714185 5.18571277 0 0 Z " fill="#7FB1E0" transform="translate(336,176)"/>
<path d="M0 0 C2.62329183 9.80061826 -1.27840873 18.02120942 -5 27 C-6.35120303 22.94639092 -5.10341051 19.97157614 -4 16 C-3.63896036 14.57399066 -3.28214855 13.14690387 -2.9296875 11.71875 C-1.953125 7.8125 -0.9765625 3.90625 0 0 Z " fill="#7AD39D" transform="translate(266,200)"/>
<path d="M0 0 C1.32 0.33 2.64 0.66 4 1 C4.33 2.65 4.66 4.3 5 6 C4.34 6 3.68 6 3 6 C2.67 7.32 2.34 8.64 2 10 C0.68 9.67 -0.64 9.34 -2 9 C-1.51421457 5.87709365 -1.0013988 3.00419641 0 0 Z " fill="#3B81DF" transform="translate(193,243)"/>
<path d="M0 0 C2 0.25 2 0.25 4 1 C4.33 1.99 4.66 2.98 5 4 C4.01 4 3.02 4 2 4 C2 4.99 2 5.98 2 7 C2.99 7.33 3.98 7.66 5 8 C5.33 9.98 5.66 11.96 6 14 C-0.37675351 7.79559118 -0.37675351 7.79559118 -2 5 C-1.75203633 2.83031791 -1.55766393 1.55766393 0 0 Z " fill="#50C883" transform="translate(258,178)"/>
<path d="M0 0 C0.66 0.33 1.32 0.66 2 1 C2 2.32 2 3.64 2 5 C-2.12168689 6.62950412 -4.70700357 7.26264601 -9 6 C-9 4.35 -9 2.7 -9 1 C-6.01405576 -0.49297212 -3.29146376 -0.11755228 0 0 Z M-4 1 C-5.32 2.65 -6.64 4.3 -8 6 C-4.31245243 5.50168276 -2.39509338 4.89932357 0 2 C-1.32 1.67 -2.64 1.34 -4 1 Z " fill="#70D18B" transform="translate(310,227)"/>
<path d="M0 0 C1.65 0 3.3 0 5 0 C5 2.31 5 4.62 5 7 C2.69 7 0.38 7 -2 7 C-1.125 2.25 -1.125 2.25 0 0 Z " fill="#2073E5" transform="translate(206,211)"/>
<path d="M0 0 C1.32 0.33 2.64 0.66 4 1 C4.33 2.65 4.66 4.3 5 6 C5.66 6 6.32 6 7 6 C6.67 6.66 6.34 7.32 6 8 C3.525 7.01 3.525 7.01 1 6 C1 6.66 1 7.32 1 8 C1.99 8 2.98 8 4 8 C4 8.66 4 9.32 4 10 C2.68 10 1.36 10 0 10 C-0.66 8.35 -1.32 6.7 -2 5 C-1.34 4.67 -0.68 4.34 0 4 C0 2.68 0 1.36 0 0 Z " fill="#59CA83" transform="translate(310,235)"/>
<path d="M0 0 C0.33 0.66 0.66 1.32 1 2 C1.66 2 2.32 2 3 2 C3 2.66 3 3.32 3 4 C5.475 4.99 5.475 4.99 8 6 C8 7.65 8 9.3 8 11 C5.5 9.625 5.5 9.625 3 8 C3 7.34 3 6.68 3 6 C2.401875 5.731875 1.80375 5.46375 1.1875 5.1875 C-0.97224808 4.01506533 -2.35790256 2.80630718 -4 1 C-2.68 0.67 -1.36 0.34 0 0 Z " fill="#558FDF" transform="translate(328,164)"/>
<path d="M0 0 C1.09658936 3.28976808 0.79953138 4.71303767 0 8 C-3.65456815 8.75241109 -7.31733897 9.40049704 -11 10 C-7.50640535 6.40365256 -3.88901869 3.16548033 0 0 Z " fill="#5092E1" transform="translate(293,292)"/>
<path d="M0 0 C0.33 0.99 0.66 1.98 1 3 C-0.15661157 5.20807663 -1.22677434 7.22677434 -3 9 C-4.85287502 9.07226502 -6.70833878 9.0838122 -8.5625 9.0625 C-9.57441406 9.05347656 -10.58632812 9.04445312 -11.62890625 9.03515625 C-12.41136719 9.02355469 -13.19382813 9.01195312 -14 9 C-14 8.67 -14 8.34 -14 8 C-12.72125 7.9175 -11.4425 7.835 -10.125 7.75 C-7.94666582 7.54130069 -7.94666582 7.54130069 -6 7 C-4.4100567 5.07935207 -4.4100567 5.07935207 -4 3 C-4 3.66 -4 4.32 -4 5 C-3.34 5 -2.68 5 -2 5 C-2 4.34 -2 3.68 -2 3 C-3.32 2.34 -4.64 1.68 -6 1 C-4 0 -4 0 0 0 Z " fill="#74A5E2" transform="translate(236,244)"/>
<path d="M0 0 C0.66 0 1.32 0 2 0 C1.01 4.29 0.02 8.58 -1 13 C-2.32 13 -3.64 13 -5 13 C-6.98 9.535 -6.98 9.535 -9 6 C-7.02 6.99 -7.02 6.99 -5 8 C-5 8.66 -5 9.32 -5 10 C-2.80882227 9.17798016 -2.80882227 9.17798016 -2.1484375 6.93359375 C-1.89320313 6.10988281 -1.63796875 5.28617188 -1.375 4.4375 C-1.11460937 3.61121094 -0.85421875 2.78492188 -0.5859375 1.93359375 C-0.39257812 1.29550781 -0.19921875 0.65742188 0 0 Z " fill="#6499D8" transform="translate(254,227)"/>
<path d="M0 0 C0.33 0 0.66 0 1 0 C1.43257617 9.0120035 1.79034011 16.98939781 -3 25 C-4.63671875 26.765625 -4.63671875 26.765625 -6 28 C-5.38210766 20.46171342 -5.38210766 20.46171342 -3.5 18.1875 C-3.005 17.795625 -2.51 17.40375 -2 17 C-0.84429296 13.53287889 -0.67164707 10.4585044 -0.4375 6.8125 C-0.35371094 5.54019531 -0.26992187 4.26789063 -0.18359375 2.95703125 C-0.12300781 1.98121094 -0.06242188 1.00539062 0 0 Z " fill="#7EABDD" transform="translate(194,211)"/>
<path d="M0 0 C0 0.66 0 1.32 0 2 C-1.76755526 2.84026396 -3.53917263 3.67198722 -5.3125 4.5 C-6.79169922 5.19609375 -6.79169922 5.19609375 -8.30078125 5.90625 C-11 7 -11 7 -14 7 C-14 5.68 -14 4.36 -14 3 C-11.69 3 -9.38 3 -7 3 C-7 2.34 -7 1.68 -7 1 C-4.53721199 -0.231394 -2.7204945 -0.07159196 0 0 Z " fill="#3C82DA" transform="translate(190,159)"/>
<path d="M0 0 C5.97281819 5.6767893 8.74815205 11.92838339 10 20 C6.09092344 16.8996979 5.06985421 13.76660589 3.80859375 9.12109375 C3.14194504 6.91876843 3.14194504 6.91876843 1.41015625 5.47265625 C0 4 0 4 0 0 Z " fill="#6199DF" transform="translate(364,133)"/>
<path d="M0 0 C6.93 0.495 6.93 0.495 14 1 C14.33 2.65 14.66 4.3 15 6 C15.66 6 16.32 6 17 6 C16.67 7.32 16.34 8.64 16 10 C15.59910156 9.50628906 15.19820313 9.01257813 14.78515625 8.50390625 C11.45142625 4.74684546 9.18553295 2.58128815 4.0625 2.0625 C2.70917036 2.01053576 1.35415633 1.97850546 0 2 C0 1.34 0 0.68 0 0 Z " fill="#6FD08D" transform="translate(264,192)"/>
<path d="M0 0 C6.08589811 2.98084806 9.78971649 6.7275477 14 12 C13.67 12.66 13.34 13.32 13 14 C11.125 13.375 11.125 13.375 9 12 C7.75 8.875 7.75 8.875 7 6 C5.35 5.67 3.7 5.34 2 5 C2 4.01 2 3.02 2 2 C1.34 2 0.68 2 0 2 C0 1.34 0 0.68 0 0 Z " fill="#73CE97" transform="translate(322,171)"/>
<path d="M0 0 C0.98120464 3.05263664 0.98120464 4.94736336 0 8 C0.99 8.33 1.98 8.66 3 9 C-0.44450737 11.29633824 -2.93812283 11.54016485 -7 12 C-6.57847656 11.38511719 -6.15695312 10.77023438 -5.72265625 10.13671875 C-4.90087891 8.92435547 -4.90087891 8.92435547 -4.0625 7.6875 C-3.51722656 6.88699219 -2.97195313 6.08648437 -2.41015625 5.26171875 C-0.86162674 2.9741857 -0.86162674 2.9741857 0 0 Z " fill="#599AE3" transform="translate(341,243)"/>
<path d="M0 0 C0 0.66 0 1.32 0 2 C-1.65 2 -3.3 2 -5 2 C-5 2.66 -5 3.32 -5 4 C-6.4096347 4.70180531 -7.82807641 5.38593958 -9.25 6.0625 C-10.03890625 6.44535156 -10.8278125 6.82820312 -11.640625 7.22265625 C-14.25993522 8.08564091 -15.44855176 7.93045933 -18 7 C-16.06374902 6.01836578 -14.12595461 5.03977546 -12.1875 4.0625 C-11.10855469 3.51722656 -10.02960938 2.97195312 -8.91796875 2.41015625 C-5.71932367 0.86435856 -3.56642318 0 0 0 Z " fill="#75D19C" transform="translate(285,164)"/>
<path d="M0 0 C0.33 0 0.66 0 1 0 C1 3.63 1 7.26 1 11 C0.01 11.33 -0.98 11.66 -2 12 C-3.125 8.6875 -3.125 8.6875 -4 5 C-3.34 4.01 -2.68 3.02 -2 2 C-1.34 2 -0.68 2 0 2 C0 1.34 0 0.68 0 0 Z " fill="#1B73E6" transform="translate(251,225)"/>
<path d="M0 0 C0.99 0.33 1.98 0.66 3 1 C1.11214091 2.49041507 -0.78418108 3.96705783 -2.6875 5.4375 C-3.48317383 6.06881836 -3.48317383 6.06881836 -4.29492188 6.71289062 C-7.4860575 9.16008052 -9.97547923 10.58933461 -14 11 C-13.67 10.01 -13.34 9.02 -13 8 C-11.8553125 7.87625 -11.8553125 7.87625 -10.6875 7.75 C-7.42905571 6.84066671 -6.90053495 5.67802651 -5 3 C-4.01 3 -3.02 3 -2 3 C-2 2.34 -2 1.68 -2 1 C-1.34 0.67 -0.68 0.34 0 0 Z " fill="#76D09C" transform="translate(264,307)"/>
<path d="M0 0 C0.66 0 1.32 0 2 0 C1.67 2.97 1.34 5.94 1 9 C-2.24208567 8.64950425 -3.61527704 8.43778819 -5.8125 5.9375 C-6.204375 5.298125 -6.59625 4.65875 -7 4 C-4.525 4.495 -4.525 4.495 -2 5 C-1.34 3.35 -0.68 1.7 0 0 Z " fill="#5890D3" transform="translate(238,298)"/>
<path d="M0 0 C0.66 0 1.32 0 2 0 C2 0.99 2 1.98 2 3 C2.99 2.67 3.98 2.34 5 2 C4.54803755 3.60597325 4.08817673 5.20972508 3.625 6.8125 C3.36976563 7.70582031 3.11453125 8.59914063 2.8515625 9.51953125 C2 12 2 12 0 15 C-0.38133299 13.0085944 -0.71325582 11.00720923 -1 9 C-0.67 8.67 -0.34 8.34 0 8 C0.07148199 6.64756083 0.08399454 5.29165633 0.0625 3.9375 C0.041875 2.638125 0.02125 1.33875 0 0 Z " fill="#5995DF" transform="translate(240,282)"/>
<path d="M0 0 C3 1 3 1 3.94921875 2.8203125 C5.53004835 7.75517738 6.33070393 11.81897177 6 17 C5.67 16.01 5.34 15.02 5 14 C4.34 14 3.68 14 3 14 C2.95101563 13.40832031 2.90203125 12.81664062 2.8515625 12.20703125 C2.43543133 7.80895528 1.95034405 4.03071103 0 0 Z " fill="#67CB8A" transform="translate(316,198)"/>
<path d="M0 0 C1.33332095 2.6666419 0.67102033 4.16680303 0 7 C-1.65 6.67 -3.3 6.34 -5 6 C-5.33 6.99 -5.66 7.98 -6 9 C-7.32 8.67 -8.64 8.34 -10 8 C-6.7 5.36 -3.4 2.72 0 0 Z " fill="#5D9ADF" transform="translate(271,310)"/>
<path d="M0 0 C0.66 0 1.32 0 2 0 C1.89300781 0.60585937 1.78601563 1.21171875 1.67578125 1.8359375 C0.70747444 8.60367327 1.60110725 13.6300588 4 20 C2.046875 19.1640625 2.046875 19.1640625 0 18 C-1.58078186 12.46726349 -1.83121072 5.49363216 0 0 Z " fill="#6699D9" transform="translate(169,208)"/>
<path d="M0 0 C1 3 1 3 -0.14453125 5.8828125 C-0.69496094 6.95273437 -1.24539063 8.02265625 -1.8125 9.125 C-2.35519531 10.20007813 -2.89789063 11.27515625 -3.45703125 12.3828125 C-5 15 -5 15 -7 16 C-7 14.35 -7 12.7 -7 11 C-6.01 10.67 -5.02 10.34 -4 10 C-3.01296048 7.93502613 -3.01296048 7.93502613 -2.375 5.5 C-1.07174888 1.07174888 -1.07174888 1.07174888 0 0 Z " fill="#5F99DC" transform="translate(372,322)"/>
<path d="M0 0 C1.65 0 3.3 0 5 0 C5 0.66 5 1.32 5 2 C6.65 2.33 8.3 2.66 10 3 C10 3.33 10 3.66 10 4 C8.02 4 6.04 4 4 4 C4 3.34 4 2.68 4 2 C3.34 2 2.68 2 2 2 C2 3.65 2 5.3 2 7 C2.66 7 3.32 7 4 7 C4 7.66 4 8.32 4 9 C3.01 8.67 2.02 8.34 1 8 C-0.35439668 5.29120665 -0.06501451 2.99066732 0 0 Z " fill="#7CAADF" transform="translate(203,243)"/>
<path d="M0 0 C2.49785694 2.12780406 2.41235992 4.27338906 2.6875 7.4375 C1.6975 7.1075 0.7075 6.7775 -0.3125 6.4375 C-0.3125 5.7775 -0.3125 5.1175 -0.3125 4.4375 C-1.26125 4.14875 -2.21 3.86 -3.1875 3.5625 C-6.3125 2.4375 -6.3125 2.4375 -8.3125 0.4375 C-5.31757424 -0.24316494 -3.01162251 -0.73255683 0 0 Z " fill="#5D91E0" transform="translate(242.3125,225.5625)"/>
<path d="M0 0 C0.66 0.33 1.32 0.66 2 1 C1.34 3.31 0.68 5.62 0 8 C-1.65 7.67 -3.3 7.34 -5 7 C-4.1875 4.0625 -4.1875 4.0625 -3 1 C-2.01 0.67 -1.02 0.34 0 0 Z " fill="#2770DA" transform="translate(238,218)"/>
<path d="M0 0 C1.32 0.33 2.64 0.66 4 1 C3.38511719 1.88751953 3.38511719 1.88751953 2.7578125 2.79296875 C1.94957031 3.97826172 1.94957031 3.97826172 1.125 5.1875 C0.59132812 5.96480469 0.05765625 6.74210938 -0.4921875 7.54296875 C-1.98015439 9.9676609 -3.02428078 12.3333499 -4 15 C-4.33 15 -4.66 15 -5 15 C-5.125 9.25 -5.125 9.25 -4 7 C-3.34 7 -2.68 7 -2 7 C-2 6.01 -2 5.02 -2 4 C-1.34 4 -0.68 4 0 4 C0 2.68 0 1.36 0 0 Z " fill="#70A3E1" transform="translate(162,177)"/>
<path d="M0 0 C1.37344385 4.39844322 0.24307502 7.92504555 -0.9375 12.25 C-1.23043945 13.36761719 -1.23043945 13.36761719 -1.52929688 14.5078125 C-2.01104198 16.34079386 -2.50439225 18.17071818 -3 20 C-3.33 20 -3.66 20 -4 20 C-3.40546697 6.3667426 -3.40546697 6.3667426 0 0 Z " fill="#74A2DF" transform="translate(131,144)"/>
<path d="M0 0 C0.33 0 0.66 0 1 0 C1.33 2.31 1.66 4.62 2 7 C3.32 7.33 4.64 7.66 6 8 C6.33 9.65 6.66 11.3 7 13 C3.61980343 11.55134433 1.26940332 9.91780427 -1 7 C-1.3125 3.8125 -1.3125 3.8125 -1 1 C-0.67 0.67 -0.34 0.34 0 0 Z " fill="#88D2A7" transform="translate(243,304)"/>
<path d="M0 0 C6.02770138 0.47587116 10.76678289 3.19722957 16 6 C11.94087374 7.35304209 10.22850409 6.15216503 6.3125 4.5625 C5.13300781 4.08941406 3.95351563 3.61632812 2.73828125 3.12890625 C1.83464844 2.75636719 0.93101562 2.38382813 0 2 C0 1.34 0 0.68 0 0 Z " fill="#6DCF98" transform="translate(306,164)"/>
<path d="M0 0 C5.74278856 0.73625494 12.78777526 1.78777526 17 6 C10.81839396 5.46246904 5.673142 3.45417612 0 1 C0 0.67 0 0.34 0 0 Z " fill="#7EAAE3" transform="translate(154,351)"/>
<path d="M0 0 C1.2065625 0.0309375 1.2065625 0.0309375 2.4375 0.0625 C2.7675 1.3825 3.0975 2.7025 3.4375 4.0625 C1.7875 3.7325 0.1375 3.4025 -1.5625 3.0625 C-1.28632467 5.00324861 -1.28632467 5.00324861 -0.5625 7.0625 C0.4275 7.7225 1.4175 8.3825 2.4375 9.0625 C-0.5325 8.5675 -0.5325 8.5675 -3.5625 8.0625 C-3.60491723 5.72955225 -3.60342937 3.39547433 -3.5625 1.0625 C-2.5625 0.0625 -2.5625 0.0625 0 0 Z " fill="#619BE3" transform="translate(235.5625,209.9375)"/>
<path d="M0 0 C0.66 0 1.32 0 2 0 C1.35812082 5.13503344 0.31727753 9.9943454 -1 15 C-1.33 15 -1.66 15 -2 15 C-2.19392201 9.47322267 -1.7479503 5.24385089 0 0 Z " fill="#67A3DA" transform="translate(258,212)"/>
<path d="M0 0 C1.65 0 3.3 0 5 0 C2.01767477 3.32643967 -0.86370087 5.29152862 -5 7 C-5.66 6.67 -6.32 6.34 -7 6 C-6.34 4.68 -5.68 3.36 -5 2 C-3.35 2 -1.7 2 0 2 C0 1.34 0 0.68 0 0 Z " fill="#6399DF" transform="translate(186,193)"/>
<path d="M0 0 C-2.80804268 2.96404505 -5.18315774 5.44499019 -9 7 C-8.625 4.0625 -8.625 4.0625 -8 1 C-5.29120665 -0.35439668 -2.99066732 -0.06501451 0 0 Z " fill="#6DD28E" transform="translate(276,300)"/>
<path d="M0 0 C0.66 0.66 1.32 1.32 2 2 C1.625 4.125 1.625 4.125 1 6 C-1.31 6 -3.62 6 -6 6 C-4.95125002 3.37812506 -4.35068687 2.20628639 -1.875 0.75 C-1.25625 0.5025 -0.6375 0.255 0 0 Z " fill="#3480DA" transform="translate(300,288)"/>
<path d="M0 0 C1.32 0.33 2.64 0.66 4 1 C-1.445 5.455 -1.445 5.455 -7 10 C-7.66 9.34 -8.32 8.68 -9 8 C-8.43410156 7.59007812 -7.86820312 7.18015625 -7.28515625 6.7578125 C-6.18494141 5.94957031 -6.18494141 5.94957031 -5.0625 5.125 C-4.33160156 4.59132813 -3.60070312 4.05765625 -2.84765625 3.5078125 C-0.88901765 2.11987896 -0.88901765 2.11987896 0 0 Z " fill="#6ED09A" transform="translate(292,283)"/>
<path d="M0 0 C1.65 0 3.3 0 5 0 C6.125 3.75 6.125 3.75 5 6 C3.35 6 1.7 6 0 6 C-1.125 2.25 -1.125 2.25 0 0 Z M1 2 C1 2.66 1 3.32 1 4 C1.66 4 2.32 4 3 4 C3 3.34 3 2.68 3 2 C2.34 2 1.68 2 1 2 Z " fill="#65CA85" transform="translate(266,239)"/>
<path d="M0 0 C0.66 1.32 1.32 2.64 2 4 C0.7260411 6.03833424 -0.61061923 8.03852126 -2 10 C-2.66 10 -3.32 10 -4 10 C-3.5205537 5.78087253 -2.83374881 3.20336822 0 0 Z " fill="#6199DF" transform="translate(228,228)"/>
<path d="M0 0 C1.79133978 -0.05391993 3.58313899 -0.09275571 5.375 -0.125 C6.37273437 -0.14820313 7.37046875 -0.17140625 8.3984375 -0.1953125 C11 0 11 0 13 2 C14.31747324 2.69748583 15.64914193 3.36959957 17 4 C15.4375 4.6875 15.4375 4.6875 13 5 C10.64903024 4.0421975 8.31648799 3.03842565 6 2 C4.01178687 1.60235737 2.01267638 1.24544834 0 1 C0 0.67 0 0.34 0 0 Z " fill="#639ADE" transform="translate(305,158)"/>
<path d="M0 0 C1.65 0 3.3 0 5 0 C1.17819158 4.4008703 -1.47371099 5.80805531 -7 7 C-7 6.34 -7 5.68 -7 5 C-6.01 5 -5.02 5 -4 5 C-4 4.34 -4 3.68 -4 3 C-2.68 3 -1.36 3 0 3 C0 2.01 0 1.02 0 0 Z " fill="#689DE1" transform="translate(352,346)"/>
<path d="M0 0 C2.97 0.495 2.97 0.495 6 1 C6 1.66 6 2.32 6 3 C6.99 3 7.98 3 9 3 C9.66 4.98 10.32 6.96 11 9 C8.96166576 7.7260411 6.96147874 6.38938077 5 5 C5 4.34 5 3.68 5 3 C2.525 2.01 2.525 2.01 0 1 C0 0.67 0 0.34 0 0 Z " fill="#749EDE" transform="translate(203,280)"/>
<path d="M0 0 C0.66 0 1.32 0 2 0 C2.268125 0.969375 2.53625 1.93875 2.8125 2.9375 C3.204375 3.948125 3.59625 4.95875 4 6 C4.99 6.33 5.98 6.66 7 7 C8.1875 9.5625 8.1875 9.5625 9 12 C5.61447304 10.54905987 3.31867051 8.8783496 1 6 C0.25 2.75 0.25 2.75 0 0 Z " fill="#5A93DC" transform="translate(225,214)"/>
<path d="M0 0 C2.125 0.9375 2.125 0.9375 4 2 C2.35 2 0.7 2 -1 2 C-1.33 4.97 -1.66 7.94 -2 11 C-2.66 11 -3.32 11 -4 11 C-4.6875 7.6875 -4.6875 7.6875 -5 4 C-3.49597949 1.85139927 -2.32895015 1.16447508 0 0 Z " fill="#6C9DDA" transform="translate(207,209)"/>
<path d="M0 0 C0.99 1.32 1.98 2.64 3 4 C2.01 4.495 2.01 4.495 1 5 C0.835 5.99 0.67 6.98 0.5 8 C0.335 8.99 0.17 9.98 0 11 C-0.99 11.495 -0.99 11.495 -2 12 C-2.17835515 7.45194365 -1.99785435 4.1205746 0 0 Z " fill="#3EC971" transform="translate(261,225)"/>
<path d="M0 0 C2.68666139 5.1814184 4.27625249 9.06057157 4 15 C0.56227273 11.56227273 0.02872226 7.89039016 -0.125 3.125 C-0.08375 2.09375 -0.0425 1.0625 0 0 Z " fill="#84D89F" transform="translate(326,214)"/>
<path d="M0 0 C2.8503026 3.20945602 3.43451699 5.49988548 3.6875 9.75 C3.75324219 10.73484375 3.81898438 11.7196875 3.88671875 12.734375 C3.92410156 13.48203125 3.96148437 14.2296875 4 15 C0.56227273 11.56227273 0.02872226 7.89039016 -0.125 3.125 C-0.08375 2.09375 -0.0425 1.0625 0 0 Z " fill="#75A4E0" transform="translate(128,312)"/>
<path d="M0 0 C2.97 0.495 2.97 0.495 6 1 C4.5 3.5 4.5 3.5 2 6 C-0.80138565 6.45442324 -3.13800875 6.23849927 -6 6 C-6 5.67 -6 5.34 -6 5 C-4.02 4.67 -2.04 4.34 0 4 C0 2.68 0 1.36 0 0 Z " fill="#45CD76" transform="translate(273,240)"/>
<path d="M0 0 C0.99 0.33 1.98 0.66 3 1 C4.20568053 5.67201205 4.09382426 10.21496292 4 15 C2.1866078 11.79989612 1.47786026 8.86716157 0.875 5.25 C0.70742188 4.26515625 0.53984375 3.2803125 0.3671875 2.265625 C0.24601562 1.51796875 0.12484375 0.7703125 0 0 Z " fill="#7BD699" transform="translate(322,199)"/>
<path d="M0 0 C1.2077558 3.62326739 0.54311128 4.64146369 -1 8 C-2.875 7.75 -2.875 7.75 -5 7 C-6.25 4.9375 -6.25 4.9375 -7 3 C-6.21625 3.061875 -5.4325 3.12375 -4.625 3.1875 C-3.75875 3.125625 -2.8925 3.06375 -2 3 C-1.34 2.01 -0.68 1.02 0 0 Z " fill="#50CE78" transform="translate(326,192)"/>
<path d="M0 0 C0.6875 1.625 0.6875 1.625 1 4 C-0.4375 7.25 -0.4375 7.25 -2 10 C-2.99 10 -3.98 10 -5 10 C-3.84414715 6.08788267 -2.64465038 3.1254959 0 0 Z " fill="#5E93DD" transform="translate(137,134)"/>
<path d="M0 0 C4.41889613 1.35021826 6.34345343 3.26115668 9 7 C7.35 6.67 5.7 6.34 4 6 C4 5.34 4 4.68 4 4 C2.68 4 1.36 4 0 4 C0 2.68 0 1.36 0 0 Z " fill="#6094E1" transform="translate(350,121)"/>
<path d="M0 0 C1.49080078 0.02707031 1.49080078 0.02707031 3.01171875 0.0546875 C3.77097656 0.07789062 4.53023437 0.10109375 5.3125 0.125 C3.09060176 2.34689824 1.22767292 3.05098892 -1.6875 4.125 C-1.6875 3.465 -1.6875 2.805 -1.6875 2.125 C-3.9975 2.125 -6.3075 2.125 -8.6875 2.125 C-5.26655758 -0.15562828 -4.00562778 -0.09425007 0 0 Z " fill="#2772D8" transform="translate(174.6875,114.875)"/>
<path d="M0 0 C0.33 0.99 0.66 1.98 1 3 C-2.28804981 5.91227269 -4.59885603 7.49701212 -9 8 C-8.34 7.01 -7.68 6.02 -7 5 C-6.01 5 -5.02 5 -4 5 C-3.67 4.01 -3.34 3.02 -3 2 C-2.01 1.34 -1.02 0.68 0 0 Z " fill="#72A6DA" transform="translate(281,302)"/>
<path d="M0 0 C0.66 0 1.32 0 2 0 C2.33 2.97 2.66 5.94 3 9 C1.68 9.33 0.36 9.66 -1 10 C-0.814375 9.236875 -0.62875 8.47375 -0.4375 7.6875 C0.22819173 4.91032625 0.22819173 4.91032625 -1 2 C-0.67 1.34 -0.34 0.68 0 0 Z " fill="#1569DD" transform="translate(220,239)"/>
<path d="M0 0 C4.1424367 1.38081223 5.32203099 3.59825558 8 7 C7 9 7 9 5 10 C4.67 9.01 4.34 8.02 4 7 C3.505 6.525625 3.01 6.05125 2.5 5.5625 C0.75814029 3.74806281 0.42144987 2.44440923 0 0 Z " fill="#6CA0DF" transform="translate(250,183)"/>
<path d="M0 0 C1.44096586 0.42594588 2.87768712 0.86626633 4.3125 1.3125 C5.11300781 1.55613281 5.91351563 1.79976562 6.73828125 2.05078125 C9.09964573 3.04182023 10.33879993 4.08074943 12 6 C4.63636364 5.50909091 4.63636364 5.50909091 1.5 3 C0 1 0 1 0 0 Z " fill="#659FE3" transform="translate(225,166)"/>
<path d="M0 0 C5.68504055 0.43731081 6.73173127 0.73173127 11 5 C6.71 4.34 2.42 3.68 -2 3 C-1.34 2.01 -0.68 1.02 0 0 Z " fill="#6D9CE1" transform="translate(217,156)"/>
<path d="M0 0 C-0.66 2.97 -1.32 5.94 -2 9 C-3.32 8.34 -4.64 7.68 -6 7 C-5.67 6.38125 -5.34 5.7625 -5 5.125 C-3.85806765 3.08981656 -3.85806765 3.08981656 -4 1 C-2 0 -2 0 0 0 Z " fill="#3DCC6D" transform="translate(257,277)"/>
<path d="M0 0 C-1.1196986 1.00593243 -2.2459412 2.0045849 -3.375 3 C-4.00148438 3.556875 -4.62796875 4.11375 -5.2734375 4.6875 C-7 6 -7 6 -9 6 C-9 5.01 -9 4.02 -9 3 C-8.34 3 -7.68 3 -7 3 C-6.67 2.01 -6.34 1.02 -6 0 C-3.50907189 -1.24546405 -2.58919267 -0.7767578 0 0 Z " fill="#77D295" transform="translate(317,267)"/>
<path d="M0 0 C0.66 0.33 1.32 0.66 2 1 C-1.42388092 4.82669043 -4.00724943 6.72278474 -9 8 C-7.83917375 4.51752126 -7.09067524 4.11180756 -4.0625 2.25 C-3.35222656 1.80140625 -2.64195312 1.3528125 -1.91015625 0.890625 C-1.27980469 0.59671875 -0.64945313 0.3028125 0 0 Z " fill="#77A3E2" transform="translate(187,199)"/>
<path d="M0 0 C1.134375 0.020625 2.26875 0.04125 3.4375 0.0625 C-1.3125 4.9375 -1.3125 4.9375 -3.5625 6.0625 C-3.94468767 4.40635343 -4.27645102 2.73792976 -4.5625 1.0625 C-3.5625 0.0625 -3.5625 0.0625 0 0 Z " fill="#659AE2" transform="translate(174.5625,165.9375)"/>
<path d="M0 0 C0.66 0.33 1.32 0.66 2 1 C1 4 1 4 -1 5 C-2.54023996 5.06950541 -4.08334988 5.08452357 -5.625 5.0625 C-6.85089844 5.04896484 -6.85089844 5.04896484 -8.1015625 5.03515625 C-9.04128906 5.01775391 -9.04128906 5.01775391 -10 5 C-10 4.67 -10 4.34 -10 4 C-9.36191406 3.79503906 -8.72382813 3.59007812 -8.06640625 3.37890625 C-7.24011719 3.10949219 -6.41382813 2.84007812 -5.5625 2.5625 C-4.73878906 2.29566406 -3.91507813 2.02882813 -3.06640625 1.75390625 C-1.03780412 1.17844506 -1.03780412 1.17844506 0 0 Z " fill="#77ABE0" transform="translate(259,319)"/>
<path d="M0 0 C0 3 0 3 -1 6 C-4.5625 7.1875 -4.5625 7.1875 -8 8 C-8.66 7.34 -9.32 6.68 -10 6 C-9.44570312 5.73445313 -8.89140625 5.46890625 -8.3203125 5.1953125 C-7.59585938 4.84210938 -6.87140625 4.48890625 -6.125 4.125 C-5.40570313 3.77695312 -4.68640625 3.42890625 -3.9453125 3.0703125 C-1.84864981 2.03442457 -1.84864981 2.03442457 0 0 Z " fill="#6395DF" transform="translate(235,255)"/>
<path d="M0 0 C0.33 0 0.66 0 1 0 C1.33 4.29 1.66 8.58 2 13 C1.01 13.33 0.02 13.66 -1 14 C-0.67 9.38 -0.34 4.76 0 0 Z " fill="#2472DC" transform="translate(167,213)"/>
<path d="M0 0 C2.12534659 0.14069196 4.25027529 0.28770921 6.375 0.4375 C8.15003906 0.55931641 8.15003906 0.55931641 9.9609375 0.68359375 C13 1 13 1 15 2 C15 2.66 15 3.32 15 4 C13.24871182 3.71617054 11.49899997 3.42260471 9.75 3.125 C8.77546875 2.96257812 7.8009375 2.80015625 6.796875 2.6328125 C4.22735883 2.05144152 2.27928944 1.29159735 0 0 Z " fill="#7AA8E4" transform="translate(224,184)"/>
<path d="M0 0 C0 0.33 0 0.66 0 1 C-7.5 2.5 -7.5 2.5 -15 4 C-14.67 3.01 -14.34 2.02 -14 1 C-9.23692563 0.04738513 -4.8333472 -0.08333357 0 0 Z " fill="#73ACDB" transform="translate(288,158)"/>
<path d="M0 0 C2 1 2 1 2.68359375 2.703125 C3.08121254 5.58954291 2.63949811 7.89895051 2.0625 10.75 C1.86785156 11.73484375 1.67320312 12.7196875 1.47265625 13.734375 C1.31667969 14.48203125 1.16070312 15.2296875 1 16 C0.67 16 0.34 16 0 16 C0 10.72 0 5.44 0 0 Z " fill="#85ACDD" transform="translate(183,242)"/>
<path d="M0 0 C0.99 0.33 1.98 0.66 3 1 C2.01 2.98 1.02 4.96 0 7 C-0.99 7 -1.98 7 -3 7 C-3 6.34 -3 5.68 -3 5 C-3.99 4.67 -4.98 4.34 -6 4 C-3 3 -3 3 0 4 C0 2.68 0 1.36 0 0 Z " fill="#43BF68" transform="translate(319,239)"/>
<path d="M0 0 C0.33 0 0.66 0 1 0 C1 2.64 1 5.28 1 8 C0.01 8.33 -0.98 8.66 -2 9 C-2 9.99 -2 10.98 -2 12 C-2.66 12 -3.32 12 -4 12 C-2.66666667 8 -1.33333333 4 0 0 Z " fill="#7DB5E5" transform="translate(346,231)"/>
<path d="M0 0 C2.475 0.99 2.475 0.99 5 2 C4.67 2.99 4.34 3.98 4 5 C3.01 5.33 2.02 5.66 1 6 C0.34 5.34 -0.32 4.68 -1 4 C-0.625 1.875 -0.625 1.875 0 0 Z " fill="#1E71E6" transform="translate(194,183)"/>
<path d="M0 0 C2.64 1.98 5.28 3.96 8 6 C7.01 6.33 6.02 6.66 5 7 C4.5875 6.54625 4.175 6.0925 3.75 5.625 C1.93591905 3.94049626 0.24714373 3.00734029 -2 2 C-1.34 2 -0.68 2 0 2 C0 1.34 0 0.68 0 0 Z " fill="#5A93DD" transform="translate(218,299)"/>
<path d="M0 0 C0.33 0 0.66 0 1 0 C1 2.64 1 5.28 1 8 C-0.65 8.33 -2.3 8.66 -4 9 C-2.68 6.03 -1.36 3.06 0 0 Z " fill="#659CE3" transform="translate(240,246)"/>
<path d="M0 0 C0.66 0 1.32 0 2 0 C2.99 3.3 3.98 6.6 5 10 C1.95623822 7.97082548 1.25189126 7.27417715 0 4 C0 2.68 0 1.36 0 0 Z " fill="#6DA1E1" transform="translate(155,232)"/>
<path d="M0 0 C1.98 0 3.96 0 6 0 C6.33 0.99 6.66 1.98 7 3 C7.66 3.66 8.32 4.32 9 5 C8.01 5.495 8.01 5.495 7 6 C5.83054208 5.19152271 4.66449539 4.37810888 3.5 3.5625 C2.8503125 3.11003906 2.200625 2.65757812 1.53125 2.19140625 C1.0259375 1.79824219 0.520625 1.40507812 0 1 C0 0.67 0 0.34 0 0 Z " fill="#72A2E4" transform="translate(240,167)"/>
<path d="M0 0 C0 0.66 0 1.32 0 2 C-5.625 5 -5.625 5 -9 5 C-8.67 4.01 -8.34 3.02 -8 2 C-5.10441559 0.5522078 -3.25811062 0 0 0 Z " fill="#649EDF" transform="translate(273,161)"/>
<path d="M0 0 C-0.66 1.32 -1.32 2.64 -2 4 C-4.9719385 2.87548273 -7.33440687 1.77706209 -10 0 C-3.375 -1.125 -3.375 -1.125 0 0 Z " fill="#5992E3" transform="translate(242,163)"/>
<path d="M0 0 C4.455 2.97 4.455 2.97 9 6 C7.68 6.33 6.36 6.66 5 7 C5 6.34 5 5.68 5 5 C3.68 4.67 2.36 4.34 1 4 C0.67 2.68 0.34 1.36 0 0 Z " fill="#679CDE" transform="translate(238,315)"/>
<path d="M0 0 C0.66 1.32 1.32 2.64 2 4 C0.35 6.31 -1.3 8.62 -3 11 C-3.33 9.68 -3.66 8.36 -4 7 C-3.34 7 -2.68 7 -2 7 C-2 6.01 -2 5.02 -2 4 C-1.34 4 -0.68 4 0 4 C0 2.68 0 1.36 0 0 Z " fill="#7EACDC" transform="translate(256,262)"/>
<path d="M0 0 C-0.639375 0.309375 -1.27875 0.61875 -1.9375 0.9375 C-3.93610821 1.8345163 -3.93610821 1.8345163 -5 3 C-6.99958364 3.04080783 -9.00045254 3.04254356 -11 3 C-11.33 2.34 -11.66 1.68 -12 1 C-7.93631321 0.22596442 -4.13574827 -0.0984702 0 0 Z " fill="#79D192" transform="translate(296,252)"/>
<path d="M0 0 C1 2 1 2 0.0625 5.125 C-0.288125 6.07375 -0.63875 7.0225 -1 8 C-0.34 8.33 0.32 8.66 1 9 C-0.32 9.33 -1.64 9.66 -3 10 C-3.36923077 3.47692308 -3.36923077 3.47692308 -1.5 1.0625 C-1.005 0.711875 -0.51 0.36125 0 0 Z " fill="#4C86D8" transform="translate(192,244)"/>
<path d="M0 0 C2.96404505 2.80804268 5.44499019 5.18315774 7 9 C5.1875 8.875 5.1875 8.875 3 8 C0 2.96428571 0 2.96428571 0 0 Z " fill="#72CE90" transform="translate(275,200)"/>
<path d="M0 0 C1.98 0.495 1.98 0.495 4 1 C4.33 2.32 4.66 3.64 5 5 C4.38125 4.79375 3.7625 4.5875 3.125 4.375 C2.42375 4.25125 1.7225 4.1275 1 4 C0.34 4.66 -0.32 5.32 -1 6 C-0.67 4.02 -0.34 2.04 0 0 Z " fill="#47C772" transform="translate(333,184)"/>
<path d="M0 0 C2.475 0.495 2.475 0.495 5 1 C5 2.65 5 4.3 5 6 C2.5 4.6875 2.5 4.6875 0 3 C0 2.01 0 1.02 0 0 Z " fill="#5F98E2" transform="translate(331,169)"/>
<path d="M0 0 C0 0.66 0 1.32 0 2 C-2.64738916 3.4606285 -3.89448334 4 -7 4 C-7 3.01 -7 2.02 -7 1 C-4.53721199 -0.231394 -2.7204945 -0.07159196 0 0 Z " fill="#6297E1" transform="translate(190,159)"/>
<path d="M0 0 C-1.65 0.33 -3.3 0.66 -5 1 C-5 1.66 -5 2.32 -5 3 C-7.64 3 -10.28 3 -13 3 C-4.20833333 -1.55864198 -4.20833333 -1.55864198 0 0 Z " fill="#79B0E6" transform="translate(169,116)"/>
<path d="M0 0 C0.66 0.33 1.32 0.66 2 1 C-0.6598561 4.44216672 -3.90288286 4.99504674 -8 6 C-3.375 1.125 -3.375 1.125 0 0 Z " fill="#5193DB" transform="translate(306,283)"/>
<path d="M0 0 C0.99 0 1.98 0 3 0 C2.6875 2.875 2.6875 2.875 2 6 C1.01 6.66 0.02 7.32 -1 8 C-1 6.68 -1 5.36 -1 4 C-0.34 4 0.32 4 1 4 C0.67 2.68 0.34 1.36 0 0 Z " fill="#4C8DD8" transform="translate(249,270)"/>
<path d="M0 0 C1.98 0 3.96 0 6 0 C6.66 1.98 7.32 3.96 8 6 C4.63408134 4.55746343 2.48952921 2.66735273 0 0 Z " fill="#649FDF" transform="translate(190,269)"/>
<path d="M0 0 C1.32 0 2.64 0 4 0 C5.0625 1.8125 5.0625 1.8125 6 4 C5.67 4.99 5.34 5.98 5 7 C0 1.125 0 1.125 0 0 Z " fill="#6098DE" transform="translate(171,249)"/>
<path d="M0 0 C2.475 0.99 2.475 0.99 5 2 C5 2.99 5 3.98 5 5 C4.34 4.67 3.68 4.34 3 4 C3 3.34 3 2.68 3 2 C0.48916886 3.25541557 0.12874554 4.50063488 -1 7 C-1.04254356 5.00045254 -1.04080783 2.99958364 -1 1 C-0.67 0.67 -0.34 0.34 0 0 Z " fill="#74A4DB" transform="translate(242,239)"/>
<path d="M0 0 C2.97 0.495 2.97 0.495 6 1 C5.67 3.31 5.34 5.62 5 8 C4.731875 7.38125 4.46375 6.7625 4.1875 6.125 C3.04443152 3.7004767 3.04443152 3.7004767 0 2 C0 1.34 0 0.68 0 0 Z " fill="#6BA0E3" transform="translate(213,235)"/>
<path d="M0 0 C0.75 1.6875 0.75 1.6875 1 4 C-0.9375 6.75 -0.9375 6.75 -3 9 C-2.4140625 2.84765625 -2.4140625 2.84765625 -2 1 C-1.34 0.67 -0.68 0.34 0 0 Z " fill="#6198DF" transform="translate(191,230)"/>
<path d="M0 0 C1.32 0.33 2.64 0.66 4 1 C4.33 3.31 4.66 5.62 5 8 C2.20127563 5.47211993 0.54226981 3.79588866 0 0 Z " fill="#64A1E1" transform="translate(178,229)"/>
<path d="M0 0 C-2.97 2.475 -2.97 2.475 -6 5 C-6 3.35 -6 1.7 -6 0 C-3.50907189 -1.24546405 -2.58919267 -0.7767578 0 0 Z " fill="#5BD081" transform="translate(307,228)"/>
<path d="M0 0 C3.96 1.98 3.96 1.98 8 4 C6.02 4.99 6.02 4.99 4 6 C2.62437146 4.71034824 1.29233607 3.37310707 0 2 C0 1.34 0 0.68 0 0 Z " fill="#6CA2E6" transform="translate(240,191)"/>
<path d="M0 0 C-2.1875 2.0625 -2.1875 2.0625 -5 4 C-7.8125 3.75 -7.8125 3.75 -10 3 C-4.37755102 -1.45918367 -4.37755102 -1.45918367 0 0 Z " fill="#6297DE" transform="translate(195,166)"/>
<path d="M0 0 C1.0625 1.875 1.0625 1.875 2 4 C1.67 4.66 1.34 5.32 1 6 C1.66 6 2.32 6 3 6 C3 7.32 3 8.64 3 10 C2.34 10 1.68 10 1 10 C1 9.34 1 8.68 1 8 C0.34 7.67 -0.32 7.34 -1 7 C-0.67 4.69 -0.34 2.38 0 0 Z " fill="#2B7AD9" transform="translate(372,151)"/>
<path d="M0 0 C-0.33 0.99 -0.66 1.98 -1 3 C-1.99 2.67 -2.98 2.34 -4 2 C-6.00875442 2.27571139 -8.01178687 2.60235737 -10 3 C-7.29536552 -0.8183075 -4.37912428 -0.24787496 0 0 Z " fill="#528DDB" transform="translate(161,119)"/>
<path d="M0 0 C0.33 0.99 0.66 1.98 1 3 C-0.25 4.5625 -0.25 4.5625 -2 6 C-4.1875 5.6875 -4.1875 5.6875 -6 5 C-4.02 3.35 -2.04 1.7 0 0 Z " fill="#619CD8" transform="translate(293,292)"/>
<path d="M0 0 C0.99 0.33 1.98 0.66 3 1 C0.36 2.98 -2.28 4.96 -5 7 C-4.34 5.35 -3.68 3.7 -3 2 C-2.01 2 -1.02 2 0 2 C0 1.34 0 0.68 0 0 Z " fill="#81D8A8" transform="translate(281,293)"/>
<path d="M0 0 C1.98 0 3.96 0 6 0 C6 1.32 6 2.64 6 4 C3.83125748 3.49396008 2.00032373 3.00016187 0 2 C0 1.34 0 0.68 0 0 Z " fill="#5389DE" transform="translate(198,275)"/>
<path d="M0 0 C3.96 1.98 3.96 1.98 8 4 C8 4.33 8 4.66 8 5 C5.69 5 3.38 5 1 5 C0.67 3.35 0.34 1.7 0 0 Z " fill="#5992DC" transform="translate(203,254)"/>
<path d="M0 0 C2.5 2.3125 2.5 2.3125 5 5 C5 5.99 5 6.98 5 8 C4.360625 7.67 3.72125 7.34 3.0625 7 C1.23205433 5.92728775 1.23205433 5.92728775 0 6 C0 4.02 0 2.04 0 0 Z " fill="#669EE3" transform="translate(177,235)"/>
<path d="M0 0 C2.61754475 2.61754475 2.98764792 3.38239594 3.0625 7.125 C3.041875 8.07375 3.02125 9.0225 3 10 C2.67 9.01 2.34 8.02 2 7 C1.34 7 0.68 7 0 7 C0 4.69 0 2.38 0 0 Z " fill="#37C96C" transform="translate(338,222)"/>
<path d="M0 0 C1.65 0 3.3 0 5 0 C5 2.31 5 4.62 5 7 C3.68 6.34 2.36 5.68 1 5 C1 4.34 1 3.68 1 3 C1.99 3 2.98 3 4 3 C4 2.34 4 1.68 4 1 C2.68 0.67 1.36 0.34 0 0 Z " fill="#2872D9" transform="translate(206,211)"/>
<path d="M0 0 C3.3 0 6.6 0 10 0 C10.33 0.66 10.66 1.32 11 2 C9.906875 1.95875 8.81375 1.9175 7.6875 1.875 C3.91107771 1.67925334 3.91107771 1.67925334 1 4 C0.67 2.68 0.34 1.36 0 0 Z " fill="#64CB84" transform="translate(308,193)"/>
<path d="M0 0 C2.475 0.495 2.475 0.495 5 1 C5.33 2.98 5.66 4.96 6 7 C1.125 2.25 1.125 2.25 0 0 Z " fill="#84D6A3" transform="translate(258,185)"/>
<path d="M0 0 C0.33 0.66 0.66 1.32 1 2 C0.01 2.495 0.01 2.495 -1 3 C-1.65213292 5.02463255 -1.65213292 5.02463255 -2 7 C-3.32 7 -4.64 7 -6 7 C-6 6.34 -6 5.68 -6 5 C-5.34 5 -4.68 5 -4 5 C-3.71125 4.360625 -3.4225 3.72125 -3.125 3.0625 C-2 1 -2 1 0 0 Z " fill="#86ADE1" transform="translate(177,173)"/>
<path d="M0 0 C0.33 0.99 0.66 1.98 1 3 C-0.96466413 4.06775224 -2.96855359 5.06553465 -5 6 C-5.66 5.67 -6.32 5.34 -7 5 C-6.01 4.67 -5.02 4.34 -4 4 C-4 3.34 -4 2.68 -4 2 C-2.68 1.34 -1.36 0.68 0 0 Z " fill="#71D094" transform="translate(266,172)"/>
<path d="M0 0 C2.27521866 2.16687491 4.15794162 4.45620509 6 7 C5.67 7.66 5.34 8.32 5 9 C2.5 6.75 2.5 6.75 0 4 C0 2.68 0 1.36 0 0 Z " fill="#6A9FE4" transform="translate(364,133)"/>
<path d="M0 0 C1.65 0 3.3 0 5 0 C4.67 1.65 4.34 3.3 4 5 C2.64567325 3.68799596 1.31266518 2.35368596 0 1 C0 0.67 0 0.34 0 0 Z " fill="#6197E4" transform="translate(134,332)"/>
<path d="M0 0 C2.31 1.65 4.62 3.3 7 5 C5.68 5.33 4.36 5.66 3 6 C0 2.25 0 2.25 0 0 Z " fill="#77ABE2" transform="translate(227,306)"/>
<path d="M0 0 C0.99 0.66 1.98 1.32 3 2 C0.69 3.65 -1.62 5.3 -4 7 C-3.67 5.68 -3.34 4.36 -3 3 C-2.01 2.67 -1.02 2.34 0 2 C0 1.34 0 0.68 0 0 Z " fill="#76D29B" transform="translate(302,275)"/>
<path d="M0 0 C0.99 0.495 0.99 0.495 2 1 C2 1.66 2 2.32 2 3 C3.32 3.66 4.64 4.32 6 5 C4.125 5.625 4.125 5.625 2 6 C1.34 5.34 0.68 4.68 0 4 C0 2.68 0 1.36 0 0 Z " fill="#73A7E3" transform="translate(172,259)"/>
<path d="M0 0 C0.99 0.33 1.98 0.66 3 1 C0.03 3.475 0.03 3.475 -3 6 C-2.625 3.5625 -2.625 3.5625 -2 1 C-1.34 0.67 -0.68 0.34 0 0 Z " fill="#72D293" transform="translate(322,258)"/>
<path d="M0 0 C0.66 0 1.32 0 2 0 C2 1.98 2 3.96 2 6 C1.01 6.33 0.02 6.66 -1 7 C-0.67 4.69 -0.34 2.38 0 0 Z " fill="#1B70DB" transform="translate(196,249)"/>
<path d="M0 0 C0.33 0.66 0.66 1.32 1 2 C0.22265625 3.9453125 0.22265625 3.9453125 -0.9375 6.125 C-1.31777344 6.84945312 -1.69804687 7.57390625 -2.08984375 8.3203125 C-2.39019531 8.87460938 -2.69054687 9.42890625 -3 10 C-4 7 -4 7 -3.22265625 5.17578125 C-2.1484375 3.45052083 -1.07421875 1.72526042 0 0 Z " fill="#7CAAE5" transform="translate(227,190)"/>
<path d="M0 0 C0 2.62113708 -0.31292445 4.50935112 -1 7 C-2.32 7.33 -3.64 7.66 -5 8 C-3.62845496 5.04590299 -2.01136276 2.55991624 0 0 Z " fill="#79A8E4" transform="translate(170,180)"/>
</svg>
