<?xml version="1.0" encoding="UTF-8"?>
<svg version="1.1" xmlns="http://www.w3.org/2000/svg" width="601" height="601">
<path d="M0 0 C198.33 0 396.66 0 601 0 C601 198.33 601 396.66 601 601 C402.67 601 204.34 601 0 601 C0 402.67 0 204.34 0 0 Z " fill="#FCFCFC" transform="translate(0,0)"/>
<path d="M0 0 C0.71874198 -0.00367669 1.43748396 -0.00735338 2.17800599 -0.01114148 C4.56946852 -0.02209187 6.96088747 -0.02600745 9.35237122 -0.02983093 C11.07462702 -0.0361025 12.7968815 -0.04274991 14.51913452 -0.04974365 C20.16381399 -0.07071755 25.8084935 -0.08114513 31.45320129 -0.09111023 C33.40513434 -0.09516136 35.35706725 -0.09927839 37.30900002 -0.10346031 C46.48950984 -0.12250346 55.67001171 -0.13673197 64.85053748 -0.14507228 C75.40090689 -0.15481826 85.95106503 -0.18107222 96.50136012 -0.22157317 C104.68433806 -0.25189285 112.86725602 -0.26655638 121.05028898 -0.26985329 C125.92352625 -0.27218724 130.79653765 -0.28092812 135.66971397 -0.30631447 C193.1206914 -0.58986843 193.1206914 -0.58986843 212.47712708 17.8964386 C232.53418232 38.02505317 232.93966537 64.42273993 232.92642212 91.11933899 C232.92093701 93.6422825 232.91344406 96.16521231 232.90527749 98.6881485 C232.89381351 103.0678808 232.89808188 107.44760377 232.90002441 111.8273468 C232.90090273 119.17683267 232.88992453 126.5262255 232.87141418 133.87568665 C232.85025378 142.32472817 232.84673956 150.77363364 232.85297614 159.2226963 C232.85870744 167.41219979 232.8529801 175.60165626 232.8418026 183.79115295 C232.83720615 187.24839667 232.83626092 190.70561116 232.83838844 194.16285706 C232.8597053 254.03307946 232.8597053 254.03307946 212.34773254 275.95967102 C204.62304388 283.38766383 195.65511559 287.09901348 185.53523254 290.14717102 C184.54523254 290.51842102 183.55523254 290.88967102 182.53523254 291.27217102 C173.23681999 293.98420801 163.21064964 293.3022168 153.61116028 293.30830383 C151.90182388 293.31293919 150.1924885 293.3179648 148.4831543 293.323349 C143.85879385 293.33640701 139.23444788 293.34290515 134.6100719 293.34735966 C131.71348616 293.35030144 128.81690429 293.35440831 125.92032051 293.35886383 C116.8359318 293.37252219 107.75155203 293.38219662 98.66715378 293.38606572 C88.22094342 293.3905407 77.77486429 293.40806959 67.32869381 293.43706632 C59.22726506 293.45876495 51.12587301 293.46877437 43.02441555 293.47010684 C38.19832837 293.47114914 33.37236481 293.47693325 28.54630852 293.49492645 C23.99979707 293.51154907 19.4535003 293.51349472 14.90696907 293.50478745 C13.25112961 293.50402456 11.59527791 293.50825911 9.93946838 293.5182457 C-9.55242979 293.62878175 -28.76261534 290.74567667 -44.46476746 278.14717102 C-48.15470716 274.36645133 -51.33720352 270.39999605 -54.46476746 266.14717102 C-55.04097839 265.39049133 -55.61718933 264.63381165 -56.21086121 263.85420227 C-69.28916808 244.66136231 -67.333084 220.84172583 -67.20485735 198.768682 C-67.18193585 193.88981122 -67.19046544 189.01097412 -67.1943512 184.13206482 C-67.19610771 175.9470178 -67.1741517 167.76230502 -67.13713074 159.5773468 C-67.0947813 150.16136506 -67.08778738 140.74587158 -67.10025465 131.32981384 C-67.11170644 122.20800746 -67.10027704 113.08637015 -67.07790756 103.96458817 C-67.06870333 100.1109868 -67.0668292 96.25749033 -67.07107925 92.40388107 C-67.07489111 87.85462144 -67.05829115 83.30584749 -67.02695847 78.75669861 C-67.01858985 77.10332882 -67.01669089 75.44990918 -67.02233887 73.79652786 C-67.07939019 54.08197809 -63.95227098 35.19048573 -49.81632996 20.46357727 C-49.04031433 19.69916321 -48.26429871 18.93474915 -47.46476746 18.14717102 C-46.73000183 17.41369446 -45.99523621 16.6802179 -45.23820496 15.92451477 C-33.04892977 4.40285006 -16.51254361 0.05512093 0 0 Z " fill="#2275E8" transform="translate(219.4647674560547,136.8528289794922)"/>
<path d="M0 0 C3.18715001 2.45115598 6.24807833 5.0295599 9.24169922 7.71240234 C9.73669922 6.22740234 9.73669922 6.22740234 10.24169922 4.71240234 C12.4178656 2.96505159 14.57636157 1.35744571 16.86669922 -0.22509766 C17.47126953 -0.655 18.07583984 -1.08490234 18.69873047 -1.52783203 C25.06930044 -6.00353098 31.36074605 -9.60568728 38.80419922 -11.97509766 C39.43777344 -12.18714844 40.07134766 -12.39919922 40.72412109 -12.61767578 C53.46793708 -16.77811828 68.64975355 -17.11312947 81.24169922 -12.28759766 C82.00482422 -11.99755859 82.76794922 -11.70751953 83.55419922 -11.40869141 C85.84137734 -10.45967132 88.03563127 -9.41188097 90.24169922 -8.28759766 C91.00869141 -7.90216797 91.77568359 -7.51673828 92.56591797 -7.11962891 C110.90835879 2.95246823 119.76466156 18.28128937 126.24169922 37.71240234 C127.33328772 52.7500703 127.7068236 67.84818115 121.24169922 81.71240234 C120.93055176 82.39802246 120.6194043 83.08364258 120.29882812 83.79003906 C111.90575951 101.87524902 99.35214158 115.8867004 84.24169922 128.71240234 C83.28521484 129.53482422 82.32873047 130.35724609 81.34326172 131.20458984 C75.78349695 135.96667161 70.15347709 140.60360757 64.36669922 145.08740234 C59.32494713 148.99407453 54.47034055 153.06512061 49.67919922 157.27490234 C43.59289464 162.61490632 37.34250009 167.61634253 30.86962891 172.47998047 C29.14138306 173.78834655 27.42852746 175.11500534 25.71826172 176.44677734 C25.13641113 176.89899658 24.55456055 177.35121582 23.95507812 177.81713867 C22.34183422 179.07201164 20.72924496 180.32772609 19.11669922 181.58349609 C12.53198549 186.45940504 12.53198549 186.45940504 8.05419922 187.33740234 C2.31036869 186.39579078 -1.23758335 183.24184515 -5.75830078 179.71240234 C-6.78439453 178.94025391 -7.81048828 178.16810547 -8.86767578 177.37255859 C-15.4101607 172.43660185 -21.73742078 167.27618943 -28.00830078 162.00146484 C-30.31027977 160.08532892 -32.63445923 158.22524262 -35.00830078 156.39990234 C-50.8316354 144.21708131 -66.2027832 131.38638858 -80.75830078 117.71240234 C-81.94552734 116.62378906 -81.94552734 116.62378906 -83.15673828 115.51318359 C-87.73618639 111.16672495 -91.57235663 106.50579816 -95.25830078 101.39990234 C-95.69223145 100.80072998 -96.12616211 100.20155762 -96.57324219 99.58422852 C-98.58646882 96.71228919 -100.27153805 94.23273993 -100.75830078 90.71240234 C-101.41830078 90.71240234 -102.07830078 90.71240234 -102.75830078 90.71240234 C-103.02384766 89.97634766 -103.28939453 89.24029297 -103.56298828 88.48193359 C-103.91619141 87.50611328 -104.26939453 86.53029297 -104.63330078 85.52490234 C-104.98134766 84.56197266 -105.32939453 83.59904297 -105.68798828 82.60693359 C-106.3737773 80.75229978 -107.10466986 78.91336471 -107.89111328 77.09912109 C-108.75830078 74.71240234 -108.75830078 74.71240234 -108.75830078 70.71240234 C-109.41830078 70.71240234 -110.07830078 70.71240234 -110.75830078 70.71240234 C-113.72594516 56.83926806 -113.64881875 39.74127387 -107.75830078 26.71240234 C-107.33419922 25.69404297 -106.91009766 24.67568359 -106.47314453 23.62646484 C-103.07232611 16.10487759 -98.51426334 10.56021537 -92.75830078 4.71240234 C-92.21689453 4.08720703 -91.67548828 3.46201172 -91.11767578 2.81787109 C-67.6108458 -23.47891093 -26.04857657 -19.07528364 0 0 Z " fill="#F2F7FA" transform="translate(294.75830078125,203.28759765625)"/>
<path d="M0 0 C3.13488587 -0.32222695 4.55274902 -0.33011382 7.1328125 1.57421875 C7.79023438 2.27160156 8.44765625 2.96898437 9.125 3.6875 C9.78757812 4.37199219 10.45015625 5.05648437 11.1328125 5.76171875 C13 8 13 8 14.24462891 10.58959961 C15.7939814 13.25107429 15.7939814 13.25107429 18.70800781 13.71044922 C22.22440411 13.81256545 25.73194127 13.87868383 29.25 13.875 C30.46558594 13.92785156 31.68117188 13.98070312 32.93359375 14.03515625 C39.61661498 14.16726732 39.61661498 14.16726732 45.27929688 11.07519531 C47.1298012 8.75493734 47.1298012 8.75493734 48.56152344 6.32861328 C50.12491241 3.79779115 51.75185361 1.94438752 54 0 C56.75 -0.25 56.75 -0.25 59 0 C62.26303108 5.45379132 63.00331285 10.89909467 63.9375 17.125 C65.14717675 24.68013237 66.51303223 31.73388379 69.265625 38.890625 C70 41 70 41 70 44 C70.66 44 71.32 44 72 44 C72.66619235 54.10391725 72.32227995 65.18148507 65.44921875 73.23828125 C62.49178018 76.38025136 59.29678773 79.22111807 56 82 C55.09636719 82.76699219 54.19273437 83.53398437 53.26171875 84.32421875 C51.49372452 85.7831414 49.71217551 87.22578109 47.91796875 88.65234375 C44.52478179 91.38233754 41.23139507 94.21428865 37.9375 97.0625 C33.174589 101.16859072 28.35508863 105.17669462 23.421875 109.078125 C20.78144843 111.17343124 18.17001977 113.30139624 15.5625 115.4375 C14.63824219 116.19417969 13.71398437 116.95085937 12.76171875 117.73046875 C10.98963857 119.18673266 9.22108321 120.64730259 7.45703125 122.11328125 C4.65581336 124.4313844 1.83387687 126.7220903 -1 129 C-1.68529785 129.55397461 -2.3705957 130.10794922 -3.07666016 130.67871094 C-5.35247619 132.50862666 -7.64309492 134.31846609 -9.9375 136.125 C-10.67178223 136.71829102 -11.40606445 137.31158203 -12.16259766 137.92285156 C-12.86046387 138.46651367 -13.55833008 139.01017578 -14.27734375 139.5703125 C-15.20921509 140.30918701 -15.20921509 140.30918701 -16.15991211 141.06298828 C-18 142 -18 142 -20.11254883 141.69995117 C-23.72055672 140.36194074 -26.59479019 139.11029871 -29 136 C-30.29344776 129.23128092 -29.06699878 122.47901371 -27 116 C-26.78988281 115.1440625 -26.57976562 114.288125 -26.36328125 113.40625 C-23.4143736 102.70387296 -16.77326276 93.66824953 -9.6875 85.25390625 C-7.68876788 82.5843034 -7.44106199 80.61977082 -7.59765625 77.3125 C-8.25442026 73.53770105 -9.66375799 70.08208624 -11.04296875 66.51953125 C-14.8332877 56.54093646 -13.77250202 44.8271349 -10 35 C-9.50733643 34.23800293 -9.01467285 33.47600586 -8.50708008 32.69091797 C-6.90326065 29.82727019 -6.39362688 27.70567697 -5.9375 24.47265625 C-5.70160156 22.91321289 -5.70160156 22.91321289 -5.4609375 21.32226562 C-5.30882812 20.24654297 -5.15671875 19.17082031 -5 18.0625 C-3.17204387 5.18160576 -3.17204387 5.18160576 0 0 Z " fill="#35CD63" transform="translate(322,239)"/>
<path d="M0 0 C26.13270868 20.05269987 26.13270868 20.05269987 27.5625 30.4375 C27.82598077 35.50351665 27.18060204 39.68995196 25.8125 44.5625 C25.54179687 45.53582275 25.54179687 45.53582275 25.265625 46.52880859 C23.48481787 52.86829648 21.53727911 59.15618337 19.5625 65.4375 C18.81105344 67.87455443 18.06101821 70.31204456 17.3125 72.75 C16.72916667 74.64583333 16.14583333 76.54166667 15.5625 78.4375 C14.881875 77.73625 14.20125 77.035 13.5 76.3125 C12.52448041 75.35045444 11.54506357 74.39235024 10.5625 73.4375 C10.10101563 72.97988281 9.63953125 72.52226562 9.1640625 72.05078125 C4.78031162 67.98969224 -0.19029829 65.16604613 -5.46264648 62.41674805 C-10.94652643 59.46388962 -14.32330049 55.97579508 -16.1875 50 C-18.65255497 40.93889135 -18.94427705 30.82942968 -14.4375 22.4375 C-12.1875 19.875 -12.1875 19.875 -9.4375 18.4375 C-3.37977982 18.6839917 0.6082601 20.85394721 5.625 23.9375 C10.28089033 26.78301103 13.99327035 28.95095264 19.5625 29.4375 C8.57220494 17.41686478 -7.24674904 13.29693472 -23.0390625 12.18359375 C-38.4689811 11.91257644 -49.18888129 17.83236208 -62.0625 25.8125 C-62.95195312 26.35132813 -63.84140625 26.89015625 -64.7578125 27.4453125 C-76.35965314 34.4251944 -76.35965314 34.4251944 -83.4375 45.4375 C-84.67187724 56.46595238 -80.18318058 65.22643561 -74 74.0625 C-73.61779297 74.62195313 -73.23558594 75.18140625 -72.84179688 75.7578125 C-71.09629775 78.27085708 -69.45524789 80.42204606 -67.140625 82.4375 C-65.4375 84.4375 -65.4375 84.4375 -65.23046875 87.4609375 C-65.36066406 88.56695312 -65.49085938 89.67296875 -65.625 90.8125 C-65.74230469 91.91335938 -65.85960937 93.01421875 -65.98046875 94.1484375 C-66.41227847 97.25599123 -66.9005438 100.34649999 -67.4375 103.4375 C-68.0975 103.4375 -68.7575 103.4375 -69.4375 103.4375 C-84.4375 87.3875 -84.4375 87.3875 -84.4375 81.4375 C-85.0975 81.4375 -85.7575 81.4375 -86.4375 81.4375 C-87.21101525 79.45937996 -87.98115704 77.47994071 -88.75 75.5 C-89.17925781 74.39785156 -89.60851562 73.29570312 -90.05078125 72.16015625 C-90.50839844 70.93167969 -90.96601563 69.70320313 -91.4375 68.4375 C-91.70731689 67.77556641 -91.97713379 67.11363281 -92.25512695 66.43164062 C-96.91162829 54.17049665 -96.58387156 37.38265605 -92.0625 25.125 C-84.61042395 9.69233187 -72.75903953 -2.05359268 -56.83984375 -8.63671875 C-37.74005613 -15.17337395 -16.48244103 -11.51382113 0 0 Z " fill="#2477E8" transform="translate(286.4375,208.5625)"/>
<path d="M0 0 C11.42358733 10.17579649 18.70862955 23.13134177 19.80175781 38.5012207 C20.26948112 50.34401625 18.59278941 60.22830016 14.32128906 71.2121582 C13.95261719 72.33106445 13.58394531 73.4499707 13.20410156 74.6027832 C11.35836306 80.18292286 11.35836306 80.18292286 10.32128906 82.2121582 C8.83628906 82.7071582 8.83628906 82.7071582 7.32128906 83.2121582 C7.30710937 82.61532227 7.29292969 82.01848633 7.27832031 81.40356445 C6.89607388 74.45081174 5.30576492 68.29738981 3.2644043 61.69384766 C0.83297953 53.78273623 -0.78397129 45.74517618 -2.38574219 37.63012695 C-2.62679687 36.48157227 -2.86785156 35.33301758 -3.11621094 34.1496582 C-3.32117188 33.12743164 -3.52613281 32.10520508 -3.73730469 31.05200195 C-4.83045907 27.75439518 -6.33033708 25.75057388 -8.67871094 23.2121582 C-11.93918722 21.58192006 -14.05672129 21.7448047 -17.67871094 22.2121582 C-21.85575642 24.94938876 -25.0325573 28.23452054 -27.78027344 32.3918457 C-30.08373704 35.17581865 -31.88136025 35.73462726 -35.44433594 36.1496582 C-37.27135414 36.21658742 -39.10061754 36.23560143 -40.92871094 36.2121582 C-41.87222412 36.20869385 -42.8157373 36.20522949 -43.7878418 36.20166016 C-48.36663924 35.99590281 -51.03814935 35.63636606 -54.91699219 33.06762695 C-57.10408301 30.55706724 -58.86081425 27.99375916 -60.67871094 25.2121582 C-62.77967526 23.24592506 -63.86575046 22.26105808 -66.75683594 22.0871582 C-67.47355469 22.1284082 -68.19027344 22.1696582 -68.92871094 22.2121582 C-72.51755747 21.97487909 -73.47019813 21.4366558 -75.97167969 18.7434082 C-77.37830416 16.75517398 -78.74001859 14.73422944 -80.04980469 12.6809082 C-81.44304684 10.12154535 -81.44304684 10.12154535 -83.67871094 9.2121582 C-83.04408655 3.90765629 -78.94358851 1.65310573 -74.99902344 -1.4675293 C-52.2387888 -18.02666324 -21.86414495 -18.56561659 0 0 Z " fill="#34CD63" transform="translate(392.6787109375,210.787841796875)"/>
<path d="M0 0 C5.7620746 2.02109868 8.1246074 4.66719167 11 10 C17 24.60929432 17 24.60929432 17 32 C15.36865732 33.70125736 13.69467185 35.36181721 12 37 C2.46181382 49.67845055 -3.26687667 63.19494989 -5 79 C-9.67893887 77.52748479 -12.85381017 74.77852831 -16.4375 71.5625 C-21.1864098 67.39149986 -25.99688014 63.36251588 -31 59.5 C-36.45290494 55.27575718 -41.72106799 50.87736802 -46.93457031 46.36181641 C-51.51551266 42.39678814 -56.17706471 38.54929389 -60.890625 34.7421875 C-63 33 -63 33 -65 31 C-65.25427137 28.22371149 -65.37030425 25.59003649 -65.375 22.8125 C-65.39949219 22.06935547 -65.42398438 21.32621094 -65.44921875 20.56054688 C-65.47898499 14.89999975 -64.19491747 11.67360604 -61 7 C-60.34 6.34 -59.68 5.68 -59 5 C-58.01 5 -57.02 5 -56 5 C-55.56300781 5.88751953 -55.56300781 5.88751953 -55.1171875 6.79296875 C-54.70726562 7.58316406 -54.29734375 8.37335938 -53.875 9.1875 C-53.48054687 9.96480469 -53.08609375 10.74210937 -52.6796875 11.54296875 C-47.30946791 19.39847601 -36.94725241 24.79038934 -27.7734375 26.65625 C-20.199199 27.04768351 -14.77717551 24.8292797 -9 20 C-2.83695553 14.09994259 -0.77046234 8.41219081 0 0 Z " fill="#2375E7" transform="translate(291,289)"/>
<path d="M0 0 C-1.0041806 2.16285052 -1.97404486 3.96863754 -3.5 5.8125 C-7.32454208 11.3899572 -7.21639674 17.62025712 -7.3125 24.125 C-7.64783744 34.35775268 -9.96408488 43.48781201 -16 52 C-16.99 52 -17.98 52 -19 52 C-20.31860352 50.27172852 -20.31860352 50.27172852 -21.62890625 47.87890625 C-22.34530273 46.59983398 -22.34530273 46.59983398 -23.07617188 45.29492188 C-23.56666016 44.39322266 -24.05714844 43.49152344 -24.5625 42.5625 C-25.5382554 40.79036535 -26.51850466 39.02069529 -27.50390625 37.25390625 C-27.93517822 36.46314697 -28.3664502 35.6723877 -28.81079102 34.85766602 C-29.87212243 32.85053086 -29.87212243 32.85053086 -32 32 C-32.78023491 20.15776793 -32.78023491 20.15776793 -30.0625 16.125 C-29.051875 15.42375 -28.04125 14.7225 -27 14 C-26.37996094 13.4740625 -25.75992188 12.948125 -25.12109375 12.40625 C-18.44767943 6.80205676 -9.10866728 -0.82652722 0 0 Z " fill="#2477E8" transform="translate(241,235)"/>
<path d="M0 0 C1.24910156 0.00515625 2.49820312 0.0103125 3.78515625 0.015625 C5.03167969 0.01046875 6.27820313 0.0053125 7.5625 0 C10.84765625 0.265625 10.84765625 0.265625 13.84765625 2.265625 C13.49380684 8.28106499 11.99686196 10.11641929 7.84765625 14.265625 C7.32577999 17.52735161 7.26412616 19.29307485 8.97265625 22.140625 C12.94087159 24.5215542 17.55614008 23.27539351 21.84765625 22.265625 C21.09765625 28.015625 21.09765625 28.015625 18.84765625 30.265625 C14.74920377 30.68701419 10.64475856 30.63721999 6.52636719 30.63623047 C4.48677517 30.64059479 2.44936381 30.67687978 0.41015625 30.71484375 C-0.87632812 30.71871094 -2.1628125 30.72257812 -3.48828125 30.7265625 C-4.6695459 30.73478027 -5.85081055 30.74299805 -7.06787109 30.75146484 C-10.76739396 30.16874753 -11.9550231 29.25331015 -14.15234375 26.265625 C-14.40234375 23.015625 -14.40234375 23.015625 -14.15234375 20.265625 C-13.63671875 20.575 -13.12109375 20.884375 -12.58984375 21.203125 C-9.38644105 22.59948002 -6.64062505 23.07875279 -3.15234375 23.265625 C-0.61276141 22.38232857 -0.61276141 22.38232857 0.84765625 20.265625 C1.68248951 17.39586217 1.68248951 17.39586217 0.84765625 14.265625 C-0.60682967 12.6387867 -2.18432911 11.23695888 -3.80859375 9.78125 C-5.15234375 8.265625 -5.15234375 8.265625 -5.65234375 5.015625 C-4.92270083 1.00258895 -4.05929876 0.34204748 0 0 Z " fill="#2777E6" transform="translate(260.15234375,272.734375)"/>
<path d="M0 0 C1.79244141 0.01740234 1.79244141 0.01740234 3.62109375 0.03515625 C5.41740234 0.04869141 5.41740234 0.04869141 7.25 0.0625 C8.17683594 0.07410156 9.10367187 0.08570313 10.05859375 0.09765625 C10.23046875 5.80078125 10.23046875 5.80078125 8.68359375 8.47265625 C8.14734375 9.00890625 7.61109375 9.54515625 7.05859375 10.09765625 C6.39859375 10.09765625 5.73859375 10.09765625 5.05859375 10.09765625 C5.71859375 11.74765625 6.37859375 13.39765625 7.05859375 15.09765625 C10.35859375 15.09765625 13.65859375 15.09765625 17.05859375 15.09765625 C16.05859375 19.09765625 16.05859375 19.09765625 13.05859375 21.09765625 C8.84584412 21.3316979 5.16893974 20.91972545 1.05859375 20.09765625 C0.39859375 20.42765625 -0.26140625 20.75765625 -0.94140625 21.09765625 C-4.61108678 21.36948444 -7.10056893 21.55041481 -10.37890625 19.78515625 C-11.94140625 18.09765625 -11.94140625 18.09765625 -11.94140625 15.09765625 C-7.98140625 15.09765625 -4.02140625 15.09765625 0.05859375 15.09765625 C-1.04816238 10.89236167 -1.04816238 10.89236167 -3.62890625 7.53515625 C-4.06203125 7.06078125 -4.49515625 6.58640625 -4.94140625 6.09765625 C-4.37450909 0.14523603 -4.37450909 0.14523603 0 0 Z " fill="#EAF8ED" transform="translate(348.94140625,284.90234375)"/>
<path d="M0 0 C2.14915785 3.22373677 2.38286803 4.26703674 2 8 C0 10 0 10 -3.5 10.25 C-7 10 -7 10 -9 8 C-9.375 5.0625 -9.375 5.0625 -9 2 C-6.14911792 -1.27323499 -4.00227856 -1.47452368 0 0 Z " fill="#2978E4" transform="translate(253,254)"/>
<path d="M0 0 C0.79148437 -0.01417969 1.58296875 -0.02835937 2.3984375 -0.04296875 C4.625 0.1875 4.625 0.1875 7.625 2.1875 C7.625 3.5075 7.625 4.8275 7.625 6.1875 C3.97687527 8.52229983 0.88312212 8.56768947 -3.375 8.1875 C-5.8125 6.6875 -5.8125 6.6875 -7.375 5.1875 C-5.27912263 0.8560201 -4.88106157 0.03949079 0 0 Z " fill="#DAEDE3" transform="translate(377.375,286.8125)"/>
<path d="M0 0 C2.5 1.5 2.5 1.5 4 3 C3 6 3 6 1.375 7.1875 C-1.86901194 8.29729356 -4.59578407 8.24757934 -8 8 C-8.99 7.34 -9.98 6.68 -11 6 C-10.625 3.5625 -10.625 3.5625 -10 1 C-6.82253509 -0.58873246 -3.45987798 -0.41026221 0 0 Z " fill="#D6EADF" transform="translate(329,287)"/>
<path d="M0 0 C-0.125 2.25 -0.125 2.25 -1 5 C-3.99206104 7.51605133 -5.94797649 8.90851969 -9.875 9.25 C-10.57625 9.1675 -11.2775 9.085 -12 9 C-12.3125 6.75 -12.3125 6.75 -12 4 C-8.2996981 -0.14882334 -5.40488073 -0.42391221 0 0 Z " fill="#F6FBF7" transform="translate(374,273)"/>
<path d="M0 0 C3.96328 -0.47181905 6.25902018 -0.17601286 9.375 2.25 C12 5 12 5 12 9 C6.37458159 8.54996653 3.38512875 7.31558515 -1 4 C-0.67 2.68 -0.34 1.36 0 0 Z " fill="#EAF8EF" transform="translate(330,273)"/>
<path d="M0 0 C4.55555556 0.55555556 4.55555556 0.55555556 6 2 C6.125 5 6.125 5 6 8 C5 9 5 9 2 9.125 C-1 9 -1 9 -2 8 C-2.1875 5.0625 -2.1875 5.0625 -2 2 C-1.34 1.34 -0.68 0.68 0 0 Z " fill="#F2F6FC" transform="translate(282,254)"/>
<path d="M0 0 C0.66 0.33 1.32 0.66 2 1 C-2.29 5.29 -6.58 9.58 -11 14 C-11.66 13.67 -12.32 13.34 -13 13 C-11.39979779 11.20465118 -9.79509897 9.41370539 -8.1875 7.625 C-7.73568359 7.11710938 -7.28386719 6.60921875 -6.81835938 6.0859375 C-4.64829248 3.67827204 -2.71407209 1.80938139 0 0 Z " fill="#488EEB" transform="translate(215,208)"/>
<path d="M0 0 C-0.33 0.66 -0.66 1.32 -1 2 C-1.7425 1.9175 -2.485 1.835 -3.25 1.75 C-6.11714522 1.74923537 -6.11714522 1.74923537 -8.1875 3.8125 C-10.12076624 6.06877319 -10.12076624 6.06877319 -12 9 C-12.3125 6.75 -12.3125 6.75 -12 4 C-8.2996981 -0.14882334 -5.40488073 -0.42391221 0 0 Z " fill="#CBEFD5" transform="translate(374,273)"/>
<path d="M0 0 C0.66 0.33 1.32 0.66 2 1 C1.50628906 1.48210937 1.01257813 1.96421875 0.50390625 2.4609375 C-0.13675781 3.09257812 -0.77742188 3.72421875 -1.4375 4.375 C-2.07558594 5.00148437 -2.71367187 5.62796875 -3.37109375 6.2734375 C-5.07882176 7.91723061 -5.07882176 7.91723061 -6 10 C-6.66 10 -7.32 10 -8 10 C-7.44449305 6.40094092 -6.25112752 5.00090201 -3.4375 2.75 C-2.79683594 2.22921875 -2.15617187 1.7084375 -1.49609375 1.171875 C-1.00238281 0.78515625 -0.50867188 0.3984375 0 0 Z " fill="#57DA7D" transform="translate(317,210)"/>
<path d="M0 0 C0.99 0.33 1.98 0.66 3 1 C0.525 5.455 0.525 5.455 -2 10 C-3.19156292 5.23374833 -2.3415946 4.12120649 0 0 Z " fill="#6DDB8C" transform="translate(322,239)"/>
<path d="M0 0 C0.86625 0.3403125 0.86625 0.3403125 1.75 0.6875 C0.326875 1.55375 0.326875 1.55375 -1.125 2.4375 C-4.01134098 4.51566551 -5.09095741 5.44218075 -6.25 8.6875 C-6.5 5.875 -6.5 5.875 -6.25 2.6875 C-4.12558468 0.33546876 -3.18427034 -0.44225977 0 0 Z " fill="#5692EA" transform="translate(250.25,253.3125)"/>
<path d="M0 0 C-0.5775 0.2475 -1.155 0.495 -1.75 0.75 C-4.13449889 1.93990475 -4.13449889 1.93990475 -6.125 4.125 C-6.74375 4.74375 -7.3625 5.3625 -8 6 C-8.66 6 -9.32 6 -10 6 C-7.82304683 0.97626191 -5.41372848 -0.29263397 0 0 Z " fill="#609DF1" transform="translate(282,227)"/>
<path d="M0 0 C1.98 0.99 1.98 0.99 4 2 C3.34 3.65 2.68 5.3 2 7 C1.34 7 0.68 7 0 7 C0 4.69 0 2.38 0 0 Z " fill="#80E19C" transform="translate(400,287)"/>
</svg>
